<svg height='100px' width='100px'  fill="#4CE600" xmlns="http://www.w3.org/2000/svg" data-name="Layer 1" viewBox="0 0 64 64" x="0px" y="0px"><title>engine-mechanism-device-protocal-process</title><path d="M40,20.76794l-2.96643-1.67352a5.66035,5.66035,0,0,0,0-2.18884L40,15.23206l-2.04681-3.46412-2.96674,1.67371A6.39506,6.39506,0,0,0,33,12.34875V9H29v3.34875a6.39506,6.39506,0,0,0-1.98645,1.0929l-2.96674-1.67371L22,15.23206l2.96643,1.67352a5.66035,5.66035,0,0,0,0,2.18884L22,20.76794l2.04681,3.46412,2.9668-1.67371A6.39476,6.39476,0,0,0,29,23.65125V27h4V23.65125a6.39506,6.39506,0,0,0,1.98645-1.0929l2.96674,1.67371ZM31,21a3,3,0,1,1,3-3A3,3,0,0,1,31,21Z"></path><path d="M18,32v3.34875a6.39506,6.39506,0,0,0-1.98645,1.0929l-2.96674-1.67371L11,38.23206l2.96643,1.67352a5.66035,5.66035,0,0,0,0,2.18884L11,43.76794l2.04681,3.46412,2.9668-1.67371A6.39476,6.39476,0,0,0,18,46.65125V50h4V46.65125a6.39506,6.39506,0,0,0,1.98645-1.0929l2.96674,1.67371L29,43.76794l-2.96643-1.67352a5.66035,5.66035,0,0,0,0-2.18884L29,38.23206l-2.04681-3.46412-2.96674,1.67371A6.39506,6.39506,0,0,0,22,35.34875V32Zm5,9a3,3,0,1,1-3-3A3,3,0,0,1,23,41Z"></path><path d="M42,46h4V42.65125a6.39506,6.39506,0,0,0,1.98645-1.0929l2.96674,1.67371L53,39.76794l-2.96643-1.67352a5.66035,5.66035,0,0,0,0-2.18884L53,34.23206l-2.04681-3.46412-2.96674,1.67371A6.39506,6.39506,0,0,0,46,31.34875V28H42v3.34875a6.39506,6.39506,0,0,0-1.98645,1.0929l-2.96674-1.67371L35,34.23206l2.96643,1.67352a5.66035,5.66035,0,0,0,0,2.18884L35,39.76794l2.04681,3.46412,2.9668-1.67371A6.39476,6.39476,0,0,0,42,42.65125Zm-1-9a3,3,0,1,1,3,3A3,3,0,0,1,41,37Z"></path><rect x="44" y="18" width="2" height="2"></rect><rect x="16" y="18" width="2" height="2"></rect><rect x="29" y="51" width="2" height="2"></rect><rect x="53" y="27" width="2" height="2"></rect><rect x="9" y="27" width="2" height="2"></rect><path d="M34,2V4C48.33691,4,60,16.32422,60,31.47266c0,11.28875-6.5954,21.54309-16.2782,25.69879l1.21277-3.19879-1.86914-.709-2,5.27246a.9982.9982,0,0,0,.5459,1.27539l5,2.10938.77734-1.8418L44.6698,58.93146C54.98462,54.41956,62,43.49237,62,31.47266,62,15.22168,49.43945,2,34,2Z"></path><path d="M4,32.52734C4,21.23859,10.5954,10.98425,20.2782,6.82855l-1.21277,3.19879,1.86914.709,2-5.27246a.9982.9982,0,0,0-.5459-1.27539l-5-2.10938-.77734,1.8418L19.3302,5.06854C9.01538,9.58044,2,20.50763,2,32.52734,2,48.77832,14.56055,62,30,62V60C15.66309,60,4,47.67578,4,32.52734Z"></path><rect x="36" y="53" width="2" height="2"></rect></svg>