<svg height='100px' width='100px'  fill="#4CE600" xmlns="http://www.w3.org/2000/svg" xmlns:xlink="http://www.w3.org/1999/xlink" version="1.1" x="0px" y="0px" viewBox="0 0 64 64" style="enable-background:new 0 0 64 64;" xml:space="preserve"><path d="M34,62v-1.524c0-0.439,0.293-0.807,0.706-0.955c0.239-0.086,0.472-0.182,0.699-0.289c0.397-0.187,0.864-0.134,1.175,0.177  l1.077,1.077l2.828-2.828l-1.077-1.077c-0.31-0.31-0.364-0.778-0.177-1.175c0.107-0.227,0.204-0.461,0.289-0.699  C39.669,54.293,40.037,54,40.476,54H42v-4h-1.524c-0.439,0-0.807-0.293-0.955-0.706c-0.086-0.239-0.182-0.472-0.289-0.699  c-0.187-0.397-0.134-0.864,0.177-1.175l1.077-1.077l-2.828-2.828l-1.077,1.077c-0.31,0.31-0.778,0.364-1.175,0.177  c-0.227-0.107-0.461-0.204-0.699-0.289C34.293,44.331,34,43.963,34,43.524V42h-4v1.524c0,0.439-0.293,0.807-0.706,0.955  c-0.239,0.086-0.472,0.182-0.699,0.289c-0.397,0.187-0.864,0.134-1.175-0.177l-1.077-1.077l-2.828,2.828l1.077,1.077  c0.31,0.31,0.364,0.778,0.177,1.175c-0.107,0.227-0.204,0.461-0.289,0.699C24.331,49.707,23.963,50,23.524,50H22v4h1.524  c0.439,0,0.807,0.293,0.955,0.706c0.086,0.239,0.182,0.472,0.289,0.699c0.187,0.397,0.134,0.864-0.177,1.175l-1.077,1.077  l2.828,2.828l1.077-1.077c0.31-0.31,0.778-0.364,1.175-0.177c0.227,0.107,0.461,0.204,0.699,0.289  C29.707,59.669,30,60.037,30,60.476V62H34z M28,52c0-2.209,1.791-4,4-4s4,1.791,4,4c0,2.209-1.791,4-4,4S28,54.209,28,52z"></path><path d="M5.479,9.294C5.331,9.707,4.963,10,4.524,10H3v4h1.524c0.439,0,0.807,0.293,0.955,0.706  c0.086,0.239,0.182,0.472,0.289,0.699c0.187,0.397,0.134,0.864-0.177,1.175l-1.077,1.077l2.828,2.828l1.077-1.077  c0.31-0.31,0.778-0.364,1.175-0.177c0.227,0.107,0.461,0.204,0.699,0.289C10.707,19.669,11,20.037,11,20.476V22h4v-1.524  c0-0.439,0.293-0.807,0.706-0.955c0.239-0.086,0.472-0.182,0.699-0.289c0.397-0.187,0.864-0.134,1.175,0.177l1.077,1.077  l2.828-2.828l-1.077-1.077c-0.31-0.31-0.364-0.778-0.177-1.175c0.107-0.227,0.204-0.461,0.289-0.699  C20.669,14.293,21.037,14,21.476,14H23v-4h-1.524c-0.439,0-0.807-0.293-0.955-0.706c-0.086-0.239-0.182-0.472-0.289-0.699  c-0.187-0.397-0.134-0.864,0.177-1.175l1.077-1.077l-2.828-2.828L17.58,4.592c-0.31,0.31-0.778,0.364-1.175,0.177  c-0.227-0.107-0.461-0.204-0.699-0.289C15.293,4.331,15,3.963,15,3.524V2h-4v1.524c0,0.439-0.293,0.807-0.706,0.955  c-0.239,0.086-0.472,0.182-0.699,0.289C9.198,4.956,8.731,4.902,8.42,4.592L7.343,3.515L4.515,6.343L5.592,7.42  c0.31,0.31,0.364,0.778,0.177,1.175C5.661,8.823,5.565,9.056,5.479,9.294z M13,8c2.209,0,4,1.791,4,4c0,2.209-1.791,4-4,4  s-4-1.791-4-4C9,9.791,10.791,8,13,8z"></path><path d="M43.592,7.42c0.31,0.31,0.364,0.778,0.177,1.175c-0.107,0.227-0.204,0.461-0.289,0.699C43.331,9.707,42.963,10,42.524,10H41  v4h1.524c0.439,0,0.807,0.293,0.955,0.706c0.086,0.239,0.182,0.472,0.289,0.699c0.187,0.397,0.134,0.864-0.177,1.175l-1.077,1.077  l2.828,2.828l1.077-1.077c0.31-0.31,0.778-0.364,1.175-0.177c0.227,0.107,0.461,0.204,0.699,0.289  C48.707,19.669,49,20.037,49,20.476V22h4v-1.524c0-0.439,0.293-0.807,0.706-0.955c0.239-0.086,0.472-0.182,0.699-0.289  c0.397-0.187,0.864-0.134,1.175,0.177l1.077,1.077l2.828-2.828l-1.077-1.077c-0.31-0.31-0.364-0.778-0.177-1.175  c0.107-0.227,0.204-0.461,0.289-0.699C58.669,14.293,59.037,14,59.476,14H61v-4h-1.524c-0.439,0-0.807-0.293-0.955-0.706  c-0.086-0.239-0.182-0.472-0.289-0.699c-0.187-0.397-0.134-0.864,0.177-1.175l1.077-1.077l-2.828-2.828L55.58,4.592  c-0.31,0.31-0.778,0.364-1.175,0.177c-0.227-0.107-0.461-0.204-0.699-0.289C53.293,4.331,53,3.963,53,3.524V2h-4v1.524  c0,0.439-0.293,0.807-0.706,0.955c-0.239,0.086-0.472,0.182-0.699,0.289c-0.397,0.187-0.864,0.134-1.175-0.177l-1.077-1.077  l-2.828,2.828L43.592,7.42z M51,8c2.209,0,4,1.791,4,4c0,2.209-1.791,4-4,4s-4-1.791-4-4C47,9.791,48.791,8,51,8z"></path><path d="M52,30v3l-3.848,0c-1.36,0-2.648-0.678-3.36-1.837C42.154,26.866,37.412,24,32,24c-5.412,0-10.154,2.866-12.792,7.163  c-0.712,1.159-2,1.837-3.36,1.837L4,33v6h12.894c2.942,0,5.757-1.526,7.111-4.137C25.503,31.974,28.521,30,32,30  s6.497,1.974,7.995,4.863C41.349,37.474,44.164,39,47.106,39H52v3l8-6L52,30z"></path><rect x="27" y="11" width="2" height="2"></rect><rect x="31" y="11" width="2" height="2"></rect><rect x="35" y="11" width="2" height="2"></rect><rect x="9" y="51" width="2" height="2"></rect><rect x="13" y="51" width="2" height="2"></rect><rect x="17" y="51" width="2" height="2"></rect><rect x="5" y="51" width="2" height="2"></rect><rect x="45" y="51" width="2" height="2"></rect><rect x="49" y="51" width="2" height="2"></rect><rect x="53" y="51" width="2" height="2"></rect><rect x="57" y="51" width="2" height="2"></rect></svg>