<svg height='100px' width='100px'  fill="#4CE600" xmlns:xlink="http://www.w3.org/1999/xlink" xmlns="http://www.w3.org/2000/svg" stroke-width="0.501" stroke-linejoin="bevel" fill-rule="evenodd" version="1.1" overflow="visible" viewBox="0 0 96 96" x="0px" y="0px"><g fill="none" stroke="black" font-family="Times New Roman" font-size="16" transform="scale(1 -1)"><g transform="translate(0 -96)"><g><path d="M 19.932,15.847 L 19.932,21.663 C 19.932,23.018 21.033,24.121 22.39,24.121 C 23.744,24.121 24.848,23.018 24.848,21.663 L 24.848,18.305 L 73.661,18.305 L 73.661,77.693 L 24.848,77.693 L 24.848,74.621 C 24.848,73.265 23.744,72.163 22.39,72.163 C 21.033,72.163 19.932,73.265 19.932,74.621 L 19.932,80.152 C 19.932,81.506 21.033,82.61 22.39,82.61 L 76.119,82.61 C 77.474,82.61 78.577,81.506 78.577,80.152 L 78.577,15.847 C 78.577,14.49 77.474,13.389 76.119,13.389 L 22.39,13.389 C 21.033,13.389 19.932,14.49 19.932,15.847 Z M 17.423,28.48 C 17.423,29.835 18.524,30.938 19.881,30.938 L 25.335,30.938 C 26.69,30.938 27.793,29.835 27.793,28.48 C 27.793,27.123 26.69,26.022 25.335,26.022 L 19.881,26.022 C 18.524,26.022 17.423,27.123 17.423,28.48 Z M 34.098,49.637 C 34.098,58.605 41.378,65.884 50.346,65.884 C 59.314,65.884 66.594,58.605 66.594,49.637 C 66.594,40.668 59.314,33.39 50.346,33.39 C 41.378,33.39 34.098,40.668 34.098,49.637 Z M 17.423,36.346 C 17.423,37.7 18.524,38.804 19.881,38.804 L 25.335,38.804 C 26.69,38.804 27.793,37.7 27.793,36.346 C 27.793,34.989 26.69,33.888 25.335,33.888 L 19.881,33.888 C 18.524,33.888 17.423,34.989 17.423,36.346 Z M 50.835,42.354 L 59.901,51.422 C 60.86,52.381 60.86,53.939 59.901,54.898 C 58.941,55.857 57.384,55.857 56.424,54.898 L 49.17,47.642 L 45.425,51.712 C 44.508,52.711 42.952,52.776 41.954,51.857 C 40.955,50.939 40.89,49.383 41.809,48.385 L 47.289,42.429 C 48.233,41.399 49.848,41.367 50.835,42.354 Z M 17.423,44.211 C 17.423,45.566 18.524,46.67 19.881,46.67 L 25.335,46.67 C 26.69,46.67 27.793,45.566 27.793,44.211 C 27.793,42.855 26.69,41.753 25.335,41.753 L 19.881,41.753 C 18.524,41.753 17.423,42.855 17.423,44.211 Z M 17.423,52.077 C 17.423,53.432 18.524,54.535 19.881,54.535 L 25.335,54.535 C 26.69,54.535 27.793,53.432 27.793,52.077 C 27.793,50.72 26.69,49.619 25.335,49.619 L 19.881,49.619 C 18.524,49.619 17.423,50.72 17.423,52.077 Z M 17.423,59.943 C 17.423,61.298 18.524,62.401 19.881,62.401 L 25.335,62.401 C 26.69,62.401 27.793,61.298 27.793,59.943 C 27.793,58.586 26.69,57.485 25.335,57.485 L 19.881,57.485 C 18.524,57.485 17.423,58.586 17.423,59.943 Z M 17.423,67.809 C 17.423,69.163 18.524,70.267 19.881,70.267 L 25.335,70.267 C 26.69,70.267 27.793,69.163 27.793,67.809 C 27.793,66.452 26.69,65.351 25.335,65.351 L 19.881,65.351 C 18.524,65.351 17.423,66.452 17.423,67.809 Z" stroke-linecap="round" stroke="none" fill="#4CE600" stroke-linejoin="round" stroke-width="0.417" marker-start="none" marker-end="none" stroke-miterlimit="79.8403193612775"></path></g></g></g></svg>