<svg height='100px' width='100px'  fill="#4CE600" xmlns="http://www.w3.org/2000/svg" xmlns:xlink="http://www.w3.org/1999/xlink" version="1.1" x="0px" y="0px" viewBox="0 0 100 100" enable-background="new 0 0 100 100" xml:space="preserve"><path d="M91.883,24.565l-3.245,2.338L93.75,34H70v4h23.505l-4.867,6.756l3.245,2.338L100,35.831L91.883,24.565z M56.883,24.565  l-3.245,2.338L58.75,34H35v4h23.505l-4.867,6.756l3.245,2.338L65,35.831L56.883,24.565z M21.883,24.565l-3.245,2.338L23.75,34H0v4  h23.505l-4.867,6.756l3.245,2.338L30,35.831L21.883,24.565z M8.117,75.435l3.245-2.338L6.25,66H30v-4H6.495l4.867-6.756  l-3.245-2.338L0,64.169L8.117,75.435z M43.117,75.435l3.245-2.338L41.25,66H65v-4H41.495l4.867-6.756l-3.245-2.338L35,64.169  L43.117,75.435z M78.117,75.435l3.245-2.338L76.25,66H100v-4H76.495l4.867-6.756l-3.245-2.338L70,64.169L78.117,75.435z"></path></svg>