<svg height='100px' width='100px'  fill="#4CE600" xmlns="http://www.w3.org/2000/svg" xmlns:xlink="http://www.w3.org/1999/xlink" viewBox="0 0 128 128" version="1.1" x="0px" y="0px"><title>ability-break-protocol</title><desc>Created with Sketch.</desc><g stroke="none" stroke-width="1" fill="none" fill-rule="evenodd"><g fill="#4CE600"><path d="M57.8777068,62 L69.278519,62 L67.2752357,66 L55.992979,66 L57.8777068,62 Z M42.7627285,62 L38.6432075,66 L20,66 C18.8954305,66 18,65.1045695 18,64 C18,62.8954305 18.8954305,62 20,62 L42.7627285,62 Z M88.1469107,62 L108,62 C109.104569,62 110,62.8954305 110,64 C110,65.1045695 109.104569,66 108,66 L83.9493801,66 L88.1469107,62 Z" fill-rule="nonzero"></path><path d="M16.8550164,120.963627 L16.4943116,124.085467 L22.5076805,124.085467 L22.1469757,120.963627 L16.8550164,120.963627 Z M12.8419211,120.963627 L3.91973808,120.963627 C1.75849898,120.963627 -3.55271368e-15,119.247105 -3.55271368e-15,117.139129 L-3.55271368e-15,95.8244985 C-3.55271368e-15,93.7165226 1.75849898,92 3.91973808,92 L35.082254,92 C37.2434931,92 39.0019921,93.7145653 38.9999983,95.8244985 L38.9999983,117.139129 C38.9999983,119.247105 37.2414993,120.963627 35.0802602,120.963627 L26.160071,120.963627 L26.5207758,124.085467 L29.0790336,124.085467 L29.0790336,128 L9.92295852,128 L9.92295852,124.085467 L12.4812162,124.085467 L12.8419211,120.963627 Z M35.014466,95.9145327 L3.98752603,95.9145327 L3.98752603,117.051052 L35.014466,117.051052 L35.014466,95.9145327 Z" fill-rule="nonzero"></path><path d="M105.855016,120.963627 L105.494312,124.085467 L111.507681,124.085467 L111.146976,120.963627 L105.855016,120.963627 Z M101.841921,120.963627 L92.9197381,120.963627 C90.758499,120.963627 89,119.247105 89,117.139129 L89,95.8244985 C89,93.7165226 90.758499,92 92.9197381,92 L124.082254,92 C126.243493,92 128.001992,93.7145653 127.999998,95.8244985 L127.999998,117.139129 C127.999998,119.247105 126.241499,120.963627 124.08026,120.963627 L115.160071,120.963627 L115.520776,124.085467 L118.079034,124.085467 L118.079034,128 L98.9229585,128 L98.9229585,124.085467 L101.481216,124.085467 L101.841921,120.963627 Z M124.014466,95.9145327 L92.987526,95.9145327 L92.987526,117.051052 L124.014466,117.051052 L124.014466,95.9145327 Z" fill-rule="nonzero"></path><path d="M105.855016,28.9636275 L105.494312,32.0854673 L111.507681,32.0854673 L111.146976,28.9636275 L105.855016,28.9636275 Z M101.841921,28.9636275 L92.9197381,28.9636275 C90.758499,28.9636275 89,27.2471049 89,25.139129 L89,3.82449845 C89,1.71652259 90.758499,1.42108547e-14 92.9197381,1.42108547e-14 L124.082254,1.42108547e-14 C126.243493,1.42108547e-14 128.001992,1.71456532 127.999998,3.82449845 L127.999998,25.139129 C127.999998,27.2471049 126.241499,28.9636275 124.08026,28.9636275 L115.160071,28.9636275 L115.520776,32.0854673 L118.079034,32.0854673 L118.079034,36 L98.9229585,36 L98.9229585,32.0854673 L101.481216,32.0854673 L101.841921,28.9636275 Z M124.014466,3.9145327 L92.987526,3.9145327 L92.987526,25.051052 L124.014466,25.051052 L124.014466,3.9145327 Z" fill-rule="nonzero"></path><path d="M16.8550164,28.9636275 L16.4943116,32.0854673 L22.5076805,32.0854673 L22.1469757,28.9636275 L16.8550164,28.9636275 Z M12.8419211,28.9636275 L3.91973808,28.9636275 C1.75849898,28.9636275 -3.55271368e-15,27.2471049 -3.55271368e-15,25.139129 L-3.55271368e-15,3.82449845 C-3.55271368e-15,1.71652259 1.75849898,1.42108547e-14 3.91973808,1.42108547e-14 L35.082254,1.42108547e-14 C37.2434931,1.42108547e-14 39.0019921,1.71456532 38.9999983,3.82449845 L38.9999983,25.139129 C38.9999983,27.2471049 37.2414993,28.9636275 35.0802602,28.9636275 L26.160071,28.9636275 L26.5207758,32.0854673 L29.0790336,32.0854673 L29.0790336,36 L9.92295852,36 L9.92295852,32.0854673 L12.4812162,32.0854673 L12.8419211,28.9636275 Z M35.014466,3.9145327 L3.98752603,3.9145327 L3.98752603,25.051052 L35.014466,25.051052 L35.014466,3.9145327 Z" fill-rule="nonzero"></path><polygon points="106.5 34 110.5 34 110.5 94 106.5 94"></polygon><polygon points="17.5 34 21.5 34 21.5 94 17.5 94"></polygon><polygon transform="translate(64.000000, 64.000000) rotate(-7.000000) translate(-64.000000, -64.000000) " points="42.7221921 94 87 61.0928339 66.6332067 58.014658 82.9066739 34 41 65.7589577 62.5149213 66.3452769"></polygon></g></g></svg>