<svg height='100px' width='100px'  fill="#4CE600" xmlns="http://www.w3.org/2000/svg" viewBox="0 0 32 32" x="0px" y="0px"><title>script, coding,computing,development,</title><g data-name="Layer 5"><path d="M26.5,2l-.33,0A1,1,0,0,0,26,2H10.5A3.5,3.5,0,0,0,7,5.5V22H3a1,1,0,0,0-1,1v3.5A3.5,3.5,0,0,0,5.5,30H21a1,1,0,0,0,.17,0c.11,0,.22,0,.33,0A3.5,3.5,0,0,0,25,26.5V10h4a1,1,0,0,0,1-1V5.5A3.5,3.5,0,0,0,26.5,2ZM4,26.5V24H18v2.5a3.45,3.45,0,0,0,.35,1.5H5.5A1.5,1.5,0,0,1,4,26.5Zm19,0a1.5,1.5,0,0,1-3,0V23a1,1,0,0,0-1-1H9V5.5A1.5,1.5,0,0,1,10.5,4H23.35A3.45,3.45,0,0,0,23,5.5v21ZM28,8H25V5.5a1.5,1.5,0,0,1,3,0ZM20,9a1,1,0,0,1-1,1H13a1,1,0,0,1,0-2h6A1,1,0,0,1,20,9Zm-3,6a1,1,0,0,1-1,1H13a1,1,0,0,1,0-2h3A1,1,0,0,1,17,15Z"></path></g></svg>