<svg height='100px' width='100px'  fill="#4CE600" xmlns="http://www.w3.org/2000/svg" xmlns:xlink="http://www.w3.org/1999/xlink" version="1.1" x="0px" y="0px" viewBox="0 0 32 32" enable-background="new 0 0 32 32" xml:space="preserve"><path d="M16,3.343c-2.535,0-5.264,0.59-5.264,1.888v9.253c0,0.135,0.059,0.262,0.162,0.347c0.064,0.053,1.604,1.291,5.102,1.291  s5.037-1.238,5.102-1.291c0.104-0.085,0.162-0.212,0.162-0.347V5.23C21.264,3.933,18.535,3.343,16,3.343z M16,4.242  c2.775,0,4.316,0.693,4.365,0.987C20.316,5.524,18.773,6.218,16,6.218s-4.316-0.693-4.363-0.986C11.684,4.936,13.227,4.242,16,4.242  z M16,15.222c-2.531,0-3.916-0.699-4.363-0.976v-1.978c0.777,0.375,2.191,0.852,4.363,0.852s3.586-0.477,4.365-0.852v1.98  C19.922,14.526,18.557,15.222,16,15.222z M20.365,11.247C19.922,11.524,18.557,12.22,16,12.22c-2.531,0-3.916-0.699-4.363-0.975  v-0.013V9.268c0.777,0.374,2.191,0.852,4.363,0.852s3.586-0.478,4.365-0.852v1.965V11.247z M20.365,8.247  C19.922,8.524,18.557,9.22,16,9.22c-2.531,0-3.916-0.699-4.363-0.976V8.231V6.346C12.646,6.87,14.361,7.118,16,7.118  s3.354-0.248,4.365-0.772v1.886V8.247z"></path><path d="M27.238,17.606c-1.695,0-4.563,0.354-4.563,1.68v7.906c0,0.134,0.061,0.261,0.162,0.346c0.057,0.047,1.389,1.119,4.4,1.119  s4.346-1.072,4.4-1.119c0.104-0.085,0.164-0.212,0.164-0.346v-7.906C31.803,17.961,28.934,17.606,27.238,17.606z M23.576,22.834  c0.688,0.316,1.871,0.694,3.662,0.694s2.975-0.378,3.664-0.694v1.554c-0.406,0.243-1.572,0.805-3.664,0.805  c-2.094,0-3.26-0.563-3.662-0.805V22.834z M23.576,21.825v-1.474c0.984,0.464,2.566,0.612,3.662,0.612s2.68-0.148,3.664-0.612v1.473  c-0.406,0.243-1.572,0.804-3.664,0.804S23.979,22.065,23.576,21.825z M27.238,18.507c2.352,0,3.576,0.572,3.666,0.76  c-0.09,0.227-1.314,0.798-3.666,0.798c-2.34,0-3.564-0.566-3.662-0.757v-0.006C23.674,19.073,24.898,18.507,27.238,18.507z   M27.238,27.757c-2.094,0-3.26-0.563-3.662-0.805v-1.555c0.688,0.316,1.871,0.695,3.662,0.695s2.975-0.379,3.664-0.695v1.555  C30.496,27.195,29.33,27.757,27.238,27.757z"></path><path d="M4.76,17.606c-1.693,0-4.563,0.354-4.563,1.68v7.906c0,0.134,0.061,0.261,0.164,0.346c0.055,0.047,1.389,1.119,4.398,1.119  c3.014,0,4.346-1.072,4.402-1.119c0.104-0.085,0.162-0.212,0.162-0.346v-7.906C9.324,17.961,6.455,17.606,4.76,17.606z M4.76,18.507  c2.352,0,3.576,0.572,3.668,0.76c-0.092,0.227-1.316,0.798-3.668,0.798c-2.34,0-3.563-0.566-3.662-0.757v-0.006  C1.197,19.073,2.42,18.507,4.76,18.507z M1.098,22.834c0.688,0.316,1.873,0.694,3.662,0.694c1.791,0,2.977-0.378,3.664-0.694v1.554  c-0.406,0.243-1.572,0.805-3.664,0.805s-3.258-0.563-3.662-0.805V22.834z M1.098,21.825v-1.474c0.984,0.464,2.568,0.612,3.662,0.612  c1.098,0,2.68-0.148,3.664-0.612v1.473c-0.406,0.243-1.572,0.804-3.664,0.804S1.502,22.065,1.098,21.825z M4.76,27.757  c-2.092,0-3.258-0.563-3.662-0.805v-1.555c0.689,0.316,1.873,0.695,3.662,0.695c1.791,0,2.977-0.379,3.664-0.695v1.555  C8.018,27.195,6.852,27.757,4.76,27.757z"></path><rect x="10.871" y="22.238" width="10.26" height="0.899"></rect><rect x="6.401" y="8.053" transform="matrix(-0.8198 -0.5726 0.5726 -0.8198 5.2141 26.9804)" width="0.901" height="9.235"></rect><rect x="20.532" y="12.22" transform="matrix(0.5736 0.8191 -0.8191 0.5736 21.1024 -15.1984)" width="9.235" height="0.899"></rect></svg>