<svg height='100px' width='100px'  fill="#4CE600" xmlns="http://www.w3.org/2000/svg" data-name="Layer 1" viewBox="0 0 100 100" x="0px" y="0px"><title>Artboard 44</title><g><path d="M82,36A18,18,0,0,0,64,18H36A18,18,0,0,0,24.71,50,18,18,0,0,0,36,82H64A18,18,0,0,0,75.29,50,18,18,0,0,0,82,36ZM74,64A10,10,0,0,1,64,74H36a10,10,0,0,1,0-20H64A10,10,0,0,1,74,64ZM36,46a10,10,0,0,1,0-20H64a10,10,0,0,1,0,20Z"></path><circle cx="36" cy="36" r="4"></circle><circle cx="49" cy="36" r="4"></circle><circle cx="36" cy="64" r="4"></circle><circle cx="49" cy="64" r="4"></circle></g></svg>