<svg height='100px' width='100px'  fill="#4CE600" xmlns:dc="http://purl.org/dc/elements/1.1/" xmlns:cc="http://creativecommons.org/ns#" xmlns:rdf="http://www.w3.org/1999/02/22-rdf-syntax-ns#" xmlns:svg="http://www.w3.org/2000/svg" xmlns="http://www.w3.org/2000/svg" xmlns:sodipodi="http://sodipodi.sourceforge.net/DTD/sodipodi-0.dtd" xmlns:inkscape="http://www.inkscape.org/namespaces/inkscape" viewBox="0 0 16.933333 16.933333" version="1.1" x="0px" y="0px"><g><path style="color:#000000;font-style:normal;font-variant:normal;font-weight:normal;font-stretch:normal;font-size:medium;line-height:normal;font-family:sans-serif;font-variant-ligatures:normal;font-variant-position:normal;font-variant-caps:normal;font-variant-numeric:normal;font-variant-alternates:normal;font-feature-settings:normal;text-indent:0;text-align:start;text-decoration:none;text-decoration-line:none;text-decoration-style:solid;text-decoration-color:#000000;letter-spacing:normal;word-spacing:normal;text-transform:none;writing-mode:lr-tb;direction:ltr;text-orientation:mixed;dominant-baseline:auto;baseline-shift:baseline;text-anchor:start;white-space:normal;shape-padding:0;clip-rule:nonzero;display:inline;overflow:visible;visibility:visible;opacity:1;isolation:auto;mix-blend-mode:normal;color-interpolation:sRGB;color-interpolation-filters:linearRGB;solid-color:#000000;solid-opacity:1;vector-effect:none;fill:#4CE600;fill-opacity:1;fill-rule:nonzero;stroke:none;stroke-width:0.52916664;stroke-linecap:round;stroke-linejoin:round;stroke-miterlimit:4;stroke-dasharray:none;stroke-dashoffset:0;stroke-opacity:1;color-rendering:auto;image-rendering:auto;shape-rendering:auto;text-rendering:auto;enable-background:accumulate" d="M 4.5733561,2.7967271 H 4.3981763 c -1.7006001,0 -3.0757801,1.388243 -3.0757801,3.0995518 0,1.7113112 1.36934,3.1000702 3.0757801,3.1000702 h 0.0997 V 10.58385 c 5.821e-4,0.145313 0.1182301,0.262968 0.2635502,0.263549 h 3.43958 V 11.6427 h -5.29115 c -0.15713,0 -0.26355,0.122662 -0.26355,0.26355 v 0.529166 c 0,0.353122 0.52968,0.353122 0.52968,0 v -0.265617 h 5.02502 v 0.265617 c -0.008,0.360692 0.5371698,0.360692 0.5291699,0 v -0.265617 h 5.0276006 v 0.265617 c 0.008,0.345035 0.5215,0.345035 0.52916,0 V 11.90625 c -5.82e-4,-0.145314 -0.11823,-0.262969 -0.26355,-0.26355 H 8.7301761 v -0.795301 h 2.9124809 c 0.14531,-5.82e-4 0.26297,-0.118236 0.26355,-0.263549 V 8.9963491 h 1.20716 c 1.24268,0 2.23242,-1.0103461 2.23242,-2.250509 0,-1.172578 -0.88691,-2.1401791 -2.04331,-2.2398892 -0.40101,-2.2882918 -2.34815,-3.97397778 -4.6875209,-3.97678578 -1.63596,0.0017 -3.1933599,0.86736498 -4.0416,2.26756198 z m 4.0416201,-1.737878 c 2.1324508,0.0026 3.9286508,1.599468 4.1956108,3.736206 0.0162,0.1323091 0.12819,0.2319509 0.26148,0.2325438 h 0.0413 c 0.93676,0 1.70274,0.7597172 1.70274,1.7182412 0,0.9533559 -0.75575,1.7208248 -1.70274,1.7208248 h -1.20716 c 5.55e-4,-0.1461198 -0.11743,-0.2650318 -0.26355,-0.2656167 h -0.52917 V 7.673949 h 0.52917 c 0.14612,-5.821e-4 0.26411,-0.119497 0.26355,-0.2656168 V 5.2911491 C 11.905625,5.1458351 11.787967,5.02818 11.642657,5.0275989 H 4.7614262 C 4.6161061,5.028181 4.4984563,5.1458351 4.497876,5.2911491 V 7.4083322 C 4.4973204,7.554452 4.615306,7.673365 4.7614262,7.673949 H 5.2911061 V 8.2010482 H 4.7614262 C 4.615306,8.2016331 4.4973162,8.3205451 4.497876,8.4666649 h -0.0997 c -1.4142101,0 -2.5466101,-1.1551829 -2.5466101,-2.570386 0,-1.4193358 1.1324,-2.5698679 2.5466101,-2.5698679 h 0.3265998 c 0.0951,3.704e-4 0.1831001,-0.05034 0.23047,-0.132809 C 5.7113761,1.8729381 7.1044861,1.0604281 8.6149762,1.0588491 Z m 0.7622299,1.142566 c -0.3607001,-0.008 -0.3607001,0.537173 0,0.529166 0.1978801,2.29e-4 0.38769,0.03583 0.5622301,0.101286 0.1745498,0.06546 0.3327798,0.161073 0.4707808,0.27957 0.13799,0.118497 0.25399,0.260764 0.34158,0.4196119 0.0876,0.158851 0.14769,0.333634 0.17208,0.5219321 0.0458,0.350366 0.57137,0.2816371 0.52555,-0.06873 -0.0331,-0.255106 -0.1138,-0.4936331 -0.23254,-0.709001 -0.11875,-0.21537 -0.27597,-0.407527 -0.46096,-0.566374 -0.18498,-0.158847 -0.398131,-0.285782 -0.63097,-0.373104 -0.232841,-0.08732 -0.486101,-0.134055 -0.7477509,-0.134357 z m -4.3496099,3.35535 H 11.377077 V 7.144782 H 5.0275962 Z m 0.7927199,1.0583341 h 0.7947801 c 0.3538299,-0.0079 0.3553899,-0.5212821 0,-0.5291672 H 5.8203161 c -0.3503099,0 -0.3577201,0.5291672 0,0.5291672 z m 1.8536301,0 h 2.6442798 c 0.345041,-0.0077 0.345041,-0.521512 0,-0.5291672 H 7.6739462 c -0.35434,0 -0.3543699,0.5291672 0,0.5291672 z M 5.8203161,7.673949 H 10.583847 V 8.2010482 H 5.8203161 Z M 5.0275962,8.7302151 c 2.36011,9e-4 4.2263599,0 6.3494808,0 v 1.5880179 c -2.1207486,-0.0038 -4.2287234,0 -6.349531,0 z m 0.7927199,0.529684 c -0.36069,-0.008 -0.36069,0.537169 0,0.529166 h 0.7947801 c 0.36069,0.008 0.36069,-0.537169 0,-0.529166 z m 1.8536301,0 c -0.36069,-0.008 -0.36069,0.537169 0,0.529166 h 2.6442798 c 0.360691,0.008 0.360691,-0.537169 0,-0.529166 z M 0.79271615,13.228649 c -0.14612,5.82e-4 -0.26411,0.119497 -0.26355,0.265617 v 2.644283 c -5.6e-4,0.14612 0.11743,0.265033 0.26355,0.265617 H 4.2322963 c 0.14693,5.56e-4 0.2661798,-0.118689 0.2656199,-0.265617 V 14.023433 C 4.4984719,13.876505 4.3792263,13.757256 4.2322963,13.757816 H 2.9042162 l -0.49817,-0.458887 c -0.0488,-0.04512 -0.11283,-0.07021 -0.17931,-0.07028 z m 5.95311985,0 c -0.1461198,5.82e-4 -0.26411,0.119497 -0.2635498,0.265617 v 2.644283 c -5.557e-4,0.14612 0.11743,0.265033 0.2635498,0.265617 h 3.43958 c 0.14693,5.56e-4 0.266181,-0.118689 0.26562,-0.265617 v -2.115116 c 5.56e-4,-0.146928 -0.11869,-0.266177 -0.26562,-0.265617 H 8.8573361 L 8.359176,13.298929 c -0.0488,-0.04512 -0.1128398,-0.07021 -0.1793198,-0.07028 z m 5.953131,0 c -0.14612,5.82e-4 -0.26411,0.119497 -0.26355,0.265617 v 2.644283 c -5.56e-4,0.14612 0.11743,0.265033 0.26355,0.265617 h 3.43958 c 0.14693,5.56e-4 0.26618,-0.118689 0.26562,-0.265617 v -2.115116 c 5.55e-4,-0.146928 -0.11869,-0.266177 -0.26562,-0.265617 h -1.32808 l -0.49817,-0.458887 c -0.0488,-0.04512 -0.11283,-0.07021 -0.17931,-0.07028 z M 1.0588462,13.757816 h 1.06402 l 0.49816,0.458887 c 0.049,0.04524 0.11318,0.07034 0.17983,0.07028 H 3.9687461 V 14.5526 H 1.0588462 Z m 5.95313,0 h 1.0640099 l 0.4981599,0.458887 c 0.049,0.04524 0.11318,0.07034 0.1798402,0.07028 H 9.9218761 V 14.5526 H 7.0119762 Z m 5.9531208,0 h 1.06402 l 0.49816,0.458887 c 0.049,0.04524 0.11318,0.07034 0.17983,0.07028 h 1.16789 V 14.5526 h -2.9099 z M 1.0588462,15.082283 h 2.9098999 v 0.792716 H 1.0588462 Z m 5.95313,0 h 2.9098999 v 0.792716 H 7.0119762 Z m 5.9531208,0 h 2.9099 v 0.792716 h -2.9099 z"></path></g></svg>