<svg height='100px' width='100px'  fill="#4CE600" xmlns="http://www.w3.org/2000/svg" data-name="Layer 1" viewBox="0 0 128 128" x="0px" y="0px"><title>Cloud Data 02 solid</title><path d="M90,81.14307V46.85693l-.00055-.00519C89.98822,40.38727,76.91443,37,64,37s-25.98822,3.38727-25.99945,9.85175L38,46.85693V81.14307C38,87.61426,51.07959,91,64,91S90,87.61426,90,81.14307Zm-4-5.92194C81.14325,78.09265,72.53827,79.57,64,79.57s-17.14325-1.47736-22-4.34888V69.71c0,1.99005,7.77,5.86,22,5.86s22-3.87,22-5.86Zm0-11.42706C81.14325,66.66272,72.53827,68.14,64,68.14s-17.14325-1.47729-22-4.34595V58.29c0,1.98,7.77,5.85,22,5.85S86,60.27,86,58.29ZM64,52.71c-14.23,0-22-3.87-22-5.85C42,44.87,49.77,41,64,41s22,3.87,22,5.86C86,48.84,78.23,52.71,64,52.71Z"></path><path d="M107,0C96.89,0,86,2.54,86,8.11V25.89a4.10622,4.10622,0,0,0,.434,1.83008C88.543,32.01959,98.06964,34,107,34s18.457-1.98041,20.566-6.27991A4.10622,4.10622,0,0,0,128,25.89V8.11C128,2.54,117.11,0,107,0Zm17,22.02411C119.91931,24.12085,113.30811,25.11,107,25.11s-12.91931-.98914-17-3.08588V17c0,1.06,5.85,4.11,17,4.11s17-3.05,17-4.11ZM107,12.22c-11.15,0-17-3.05-17-4.11S95.85,4,107,4s17,3.05,17,4.11S118.15,12.22,107,12.22Z"></path><path d="M107,94c-10.11,0-21,2.54-21,8.11v17.78a4.10622,4.10622,0,0,0,.434,1.83008C88.543,126.01959,98.06964,128,107,128s18.457-1.98041,20.566-6.27991A4.10622,4.10622,0,0,0,128,119.89V102.11C128,96.54,117.11,94,107,94Zm17,22.02411c-4.08069,2.09674-10.69189,3.08588-17,3.08588s-12.91931-.98914-17-3.08588V111c0,1.06,5.85,4.11,17,4.11s17-3.05,17-4.11ZM107,106.22c-11.15,0-17-3.05-17-4.11S95.85,98,107,98s17,3.05,17,4.11S118.15,106.22,107,106.22Z"></path><path d="M21,128c8.93036,0,18.457-1.98041,20.566-6.27991A4.10622,4.10622,0,0,0,42,119.89V102.11C42,96.54,31.11,94,21,94S0,96.54,0,102.11v17.78a4.10622,4.10622,0,0,0,.434,1.83008C2.543,126.01959,12.06964,128,21,128Zm0-30c11.15,0,17,3.05,17,4.11s-5.85,4.11-17,4.11-17-3.05-17-4.11S9.85,98,21,98ZM4,111c0,1.06,5.85,4.11,17,4.11s17-3.05,17-4.11v5.02411C33.91931,118.12085,27.30811,119.11,21,119.11s-12.91931-.98914-17-3.08588Z"></path><path d="M108,42.5a2.0001,2.0001,0,0,0,2-2V40a2,2,0,0,0-4,0v.5A2.0001,2.0001,0,0,0,108,42.5Z"></path><path d="M106,48.5a2,2,0,0,0,4,0v-1a2,2,0,0,0-4,0Z"></path><path d="M106,56.5a2,2,0,0,0,4,0v-1a2,2,0,0,0-4,0Z"></path><path d="M106.3598,65.6402A1.99806,1.99806,0,0,0,110,64.5v-1a2.26653,2.26653,0,1,0-3.6402,2.1402Z"></path><path d="M102.3667,66a2,2,0,0,0,0-4h-.7334a2,2,0,1,0,0,4Z"></path><path d="M96.5,66a2,2,0,0,0,0-4H96a2,2,0,0,0,0,4Z"></path><path d="M108,85.5a2.0001,2.0001,0,0,0-2,2V88a2,2,0,0,0,4,0v-.5A2.0001,2.0001,0,0,0,108,85.5Z"></path><path d="M110,71.5a2,2,0,0,0-4,0v1a2,2,0,0,0,4,0Z"></path><path d="M110,79.5a2,2,0,0,0-4,0v1a2,2,0,0,0,4,0Z"></path><path d="M20,42.5a2.0001,2.0001,0,0,0,2-2V40a2,2,0,0,0-4,0v.5A2.0001,2.0001,0,0,0,20,42.5Z"></path><path d="M18,48.5a2,2,0,0,0,4,0v-1a2,2,0,0,0-4,0Z"></path><path d="M18,56.5a2,2,0,0,0,4,0v-1a2,2,0,0,0-4,0Z"></path><path d="M21.64209,62.35791A2.00017,2.00017,0,0,0,18,63.5v1a1.99806,1.99806,0,0,0,3.6402,1.1402,1.99742,1.99742,0,0,0,.00189-3.28229Z"></path><path d="M25.6333,62a2,2,0,0,0,0,4h.7334a2,2,0,0,0,0-4Z"></path><path d="M31.5,62a2,2,0,0,0,0,4H32a2,2,0,0,0,0-4Z"></path><path d="M20,85.5a2.0001,2.0001,0,0,0-2,2V88a2,2,0,0,0,4,0v-.5A2.0001,2.0001,0,0,0,20,85.5Z"></path><path d="M22,79.5a2,2,0,0,0-4,0v1a2,2,0,0,0,4,0Z"></path><path d="M22,71.5a2,2,0,0,0-4,0v1a2,2,0,0,0,4,0Z"></path><path d="M71.6665,19h1a2,2,0,0,0,0-4h-1a2,2,0,0,0,0,4Z"></path><path d="M79.6665,19h.667a2,2,0,0,0,0-4h-.667a2,2,0,0,0,0,4Z"></path><path d="M47.6665,19h1a2,2,0,0,0,0-4h-1a2,2,0,0,0,0,4Z"></path><path d="M63.6665,19h1a2,2,0,0,0,0-4h-1a2,2,0,0,0,0,4Z"></path><path d="M55.6665,19h1a2,2,0,0,0,0-4h-1a2,2,0,0,0,0,4Z"></path><path d="M63.6665,109a2,2,0,0,0,0,4h1a2,2,0,1,0,0-4Z"></path><path d="M79.6665,109a2,2,0,0,0,0,4h.667a2,2,0,0,0,0-4Z"></path><path d="M71.6665,109a2,2,0,0,0,0,4h1a2,2,0,1,0,0-4Z"></path><path d="M47.6665,109a2,2,0,0,0,0,4h1a2,2,0,1,0,0-4Z"></path><path d="M55.6665,109a2,2,0,0,0,0,4h1a2,2,0,1,0,0-4Z"></path><path d="M21,34c8.93036,0,18.457-1.98041,20.566-6.27991A4.10622,4.10622,0,0,0,42,25.89V8.11C42,2.54,31.11,0,21,0S0,2.54,0,8.11V25.89a4.10622,4.10622,0,0,0,.434,1.83008C2.543,32.01959,12.06964,34,21,34ZM21,4C32.15,4,38,7.05,38,8.11s-5.85,4.11-17,4.11S4,9.17,4,8.11,9.85,4,21,4ZM4,17c0,1.06,5.85,4.11,17,4.11S38,18.06,38,17v5.02411C33.91931,24.12085,27.30811,25.11,21,25.11S8.08069,24.12085,4,22.02411Z"></path></svg>