<svg height='100px' width='100px'  fill="#4CE600" xmlns="http://www.w3.org/2000/svg" viewBox="0 0 64 64" x="0px" y="0px"><g data-name="Database"><path d="M11,13a3,3,0,1,0,3,3A3,3,0,0,0,11,13Zm0,4a1,1,0,1,1,1-1A1,1,0,0,1,11,17Z"></path><path d="M31,19a3,3,0,1,0-3-3A3,3,0,0,0,31,19Zm0-4a1,1,0,1,1-1,1A1,1,0,0,1,31,15Z"></path><path d="M17,16a1,1,0,0,0,1,1h6a1,1,0,0,0,0-2H18A1,1,0,0,0,17,16Z"></path><path d="M11,25a3,3,0,1,0,3,3A3,3,0,0,0,11,25Zm0,4a1,1,0,1,1,1-1A1,1,0,0,1,11,29Z"></path><path d="M24,27H18a1,1,0,0,0,0,2h6a1,1,0,0,0,0-2Z"></path><path d="M11,37a3,3,0,1,0,3,3A3,3,0,0,0,11,37Zm0,4a1,1,0,1,1,1-1A1,1,0,0,1,11,41Z"></path><path d="M51.551,33.233a12.926,12.926,0,0,0-17.1,0,1.025,1.025,0,0,0-.135.1c-.012.013-.015.03-.026.044a12.937,12.937,0,0,0,0,19.238c.011.014.014.031.026.044a.871.871,0,0,0,.134.1,12.924,12.924,0,0,0,17.125-.015.9.9,0,0,0,.117-.086c.012-.013.015-.03.026-.044a12.937,12.937,0,0,0,0-19.238c-.011-.014-.014-.031-.026-.044A.915.915,0,0,0,51.551,33.233ZM43,54c-.589,0-1.5-1.307-2.163-3.781a10.791,10.791,0,0,1,4.326,0C44.5,52.693,43.589,54,43,54Zm4.073-3.215A10.833,10.833,0,0,1,49.311,52a10.919,10.919,0,0,1-3.274,1.569A13.908,13.908,0,0,0,47.073,50.785Zm-7.11,2.779A10.919,10.919,0,0,1,36.689,52a10.833,10.833,0,0,1,2.238-1.21A13.908,13.908,0,0,0,39.963,53.564ZM43,48a13.078,13.078,0,0,0-2.583.266,30.5,30.5,0,0,1-.4-4.266h5.966a30.5,30.5,0,0,1-.4,4.266A13.078,13.078,0,0,0,43,48Zm-2.983-6a30.5,30.5,0,0,1,.4-4.266,12.674,12.674,0,0,0,5.166,0,30.5,30.5,0,0,1,.4,4.266ZM43,36a11.052,11.052,0,0,1-2.163-.219C41.5,33.307,42.411,32,43,32s1.5,1.307,2.163,3.781A11.052,11.052,0,0,1,43,36Zm-4.073-.785a10.833,10.833,0,0,1-2.238-1.21,10.919,10.919,0,0,1,3.274-1.569A13.908,13.908,0,0,0,38.927,35.215Zm7.11-2.779a10.919,10.919,0,0,1,3.274,1.569,10.833,10.833,0,0,1-2.238,1.21A13.908,13.908,0,0,0,46.037,32.436Zm-10.912,2.9a12.9,12.9,0,0,0,3.362,1.855A32.975,32.975,0,0,0,38.017,42H32.051A10.96,10.96,0,0,1,35.125,35.336ZM32.051,44h5.966a32.975,32.975,0,0,0,.47,4.809,12.9,12.9,0,0,0-3.362,1.855A10.96,10.96,0,0,1,32.051,44Zm18.824,6.664a12.9,12.9,0,0,0-3.362-1.855A32.975,32.975,0,0,0,47.983,44h5.966A10.96,10.96,0,0,1,50.875,50.664ZM53.949,42H47.983a32.975,32.975,0,0,0-.47-4.809,12.9,12.9,0,0,0,3.362-1.855A10.96,10.96,0,0,1,53.949,42Z"></path><path d="M55,11h6a1,1,0,0,0,1-1V4a1,1,0,0,0-1-1H55a1,1,0,0,0-1,1V6H43a1,1,0,0,0-1,1V24.051a18.785,18.785,0,0,0-2,.21V7c0-3.947-11.943-5-19-5S2,3.053,2,7V43c0,3.947,11.943,5,19,5,1.047,0,2.039-.026,3-.064V57H18V55a1,1,0,0,0-1-1H3a1,1,0,0,0-1,1v6a1,1,0,0,0,1,1H17a1,1,0,0,0,1-1V59h7a1,1,0,0,0,1-1V51.434A18.985,18.985,0,1,0,44,24.051V18H54v2a1,1,0,0,0,1,1h6a1,1,0,0,0,1-1V14a1,1,0,0,0-1-1H55a1,1,0,0,0-1,1v2H44V8H54v2A1,1,0,0,0,55,11ZM16,60H4V56H16ZM56,15h4v4H56ZM26.386,33.8c-1.723.126-3.525.2-5.386.2C10.414,34,4.317,32.043,4,30.988v-9.53C7.7,23.41,15.717,24,21,24s13.3-.59,17-2.542V24.69A19.062,19.062,0,0,0,26.386,33.8ZM38,18.986C37.692,20.039,31.594,22,21,22S4.294,20.035,4,19V9.457C7.7,11.41,15.717,12,21,12s13.3-.59,17-2.542ZM21,4C31.584,4,37.678,5.955,38,6.993,37.664,8.048,31.572,10,21,10S4.323,8.044,4,7.007C4.335,5.951,10.427,4,21,4ZM4,43V33.458C7.7,35.41,15.718,36,21,36c1.51,0,2.973-.055,4.4-.135a18.881,18.881,0,0,0-.995,3.226A.994.994,0,0,0,24,39H18a1,1,0,0,0,0,2h6a1.037,1.037,0,0,0,.111-.022,17.748,17.748,0,0,0,.138,4.945C23.216,45.969,22.142,46,21,46,10.393,46,4.293,44.036,4,43Zm56,0A17,17,0,1,1,43,26,17.019,17.019,0,0,1,60,43ZM56,5h4V9H56Z"></path></g></svg>