<svg height='100px' width='100px'  fill="#000000" xmlns="http://www.w3.org/2000/svg" xmlns:xlink="http://www.w3.org/1999/xlink" version="1.1" x="0px" y="0px" viewBox="0 0 512 512" style="enable-background:new 0 0 512 512;" xml:space="preserve"><g><g><g><path d="M486,490H26c-2.209,0-4-1.791-4-4V26c0-2.209,1.791-4,4-4h460c2.209,0,4,1.791,4,4v460C490,488.209,488.209,490,486,490z      M30,482h452V30H30V482z"></path></g><g><g><path d="M359.478,223.044H152.521c-38.885,0-70.521-31.636-70.521-70.521C82,113.637,113.636,82,152.521,82h206.957      C398.363,82,430,113.636,430,152.521C430,191.407,398.363,223.044,359.478,223.044z M152.521,90      C118.047,90,90,118.047,90,152.522s28.047,62.522,62.521,62.522h206.957c34.477,0,62.522-28.047,62.522-62.522      S393.952,90,359.478,90H152.521z"></path></g><g><path d="M359.478,430H152.521C113.636,430,82,398.364,82,359.479c0-38.885,31.636-70.521,70.521-70.521h206.957      c38.888,0,70.522,31.638,70.522,70.521C430,398.364,398.363,430,359.478,430z M152.521,296.956      c-34.474,0-62.521,28.048-62.521,62.522C90,393.952,118.047,422,152.521,422h206.957C393.952,422,422,393.953,422,359.479      c0-34.474-28.048-62.521-62.522-62.521L152.521,296.956L152.521,296.956z"></path></g><g><path d="M159.913,193.478c-22.584,0-40.957-18.373-40.957-40.957s18.373-40.957,40.957-40.957s40.957,18.373,40.957,40.957      S182.497,193.478,159.913,193.478z M159.913,119.564c-18.172,0-32.957,14.785-32.957,32.957s14.785,32.957,32.957,32.957      s32.957-14.785,32.957-32.957S178.085,119.564,159.913,119.564z"></path></g><g><path d="M352.087,400.434c-22.583,0-40.956-18.371-40.956-40.955s18.373-40.957,40.956-40.957s40.956,18.373,40.956,40.957      S374.67,400.434,352.087,400.434z M352.087,326.521c-18.172,0-32.956,14.783-32.956,32.957      c0,18.172,14.784,32.955,32.956,32.955s32.956-14.783,32.956-32.955S370.259,326.521,352.087,326.521z"></path></g></g></g></g></svg>