<svg height='100px' width='100px'  fill="#000000" xmlns="http://www.w3.org/2000/svg" xmlns:xlink="http://www.w3.org/1999/xlink" version="1.1" x="0px" y="0px" viewBox="0 0 68 68" enable-background="new 0 0 68 68" xml:space="preserve"><g><path d="M10.84546,55.50863c-1.03418,0.00293-2.00732,0.4082-2.74023,1.14209c-0.73438,0.73535-1.13721,1.70947-1.13428,2.74316   c0.00537,2.13672,1.74854,3.875,3.88574,3.875h0.01025c1.03906-0.00293,2.01416-0.40967,2.74512-1.14453   c0.73145-0.73486,1.13232-1.7124,1.12939-2.75146C14.73608,57.24203,12.99341,55.50863,10.84546,55.50863z M12.90308,61.41928   c-0.54248,0.54541-1.2666,0.84717-2.03906,0.84961l-0.00732,0.5v-0.5c-1.5874,0-2.88184-1.29102-2.88574-2.87793   c-0.00244-0.76563,0.29688-1.48779,0.84131-2.0332c0.54492-0.54541,1.26807-0.84717,2.04443-0.84912   c1.58643,0,2.88086,1.28613,2.88477,2.86719C13.7439,60.14779,13.44604,60.87338,12.90308,61.41928z"></path><path d="M16.92261,45.64779l-0.01221-4.37451l-12.20313,0.0332l0.01172,4.375L16.92261,45.64779z M15.91333,42.27621   l0.00635,2.37451L5.71606,44.67855l-0.00586-2.375L15.91333,42.27621z"></path><path d="M4.73706,52.2723l12.20361-0.0332l-0.01221-4.375L4.72485,47.8973L4.73706,52.2723z M15.9314,48.86703l0.00635,2.375   L5.73413,51.26937l-0.00635-2.375L15.9314,48.86703z"></path><path d="M34.00708,55.50863c-1.03418,0.00293-2.00781,0.4082-2.74072,1.14209c-0.73438,0.73486-1.13721,1.70898-1.13428,2.74316   c0.00537,2.13672,1.74854,3.875,3.88574,3.875h0.01025c2.14209-0.00635,3.88037-1.75391,3.875-3.896   C37.89673,57.24203,36.15454,55.50863,34.00708,55.50863z M34.02515,62.26889l-0.00732,0.5v-0.5   c-1.5874,0-2.88184-1.29102-2.88574-2.87793c-0.00195-0.76563,0.29688-1.48779,0.8418-2.0332s1.26807-0.84717,2.04443-0.84912   c1.58643,0,2.88037,1.28613,2.88477,2.86719C36.90747,60.96664,35.61646,62.26449,34.02515,62.26889z"></path><path d="M40.08423,45.64779l-0.01221-4.37451l-12.20361,0.0332l0.01221,4.375L40.08423,45.64779z M39.07495,42.27621   l0.00635,2.37451l-10.20361,0.02783l-0.00635-2.375L39.07495,42.27621z"></path><path d="M27.89819,52.2723l12.20361-0.0332l-0.01221-4.375l-12.20313,0.0332L27.89819,52.2723z M39.09253,48.86703l0.00635,2.375   l-10.20361,0.02734l-0.00586-2.375L39.09253,48.86703z"></path><path d="M58.3811,37.94979V34.832c1.90723-0.24915,3.39014-1.87048,3.39014-3.84924c0-2.15088-1.74512-3.90039-3.89014-3.90039   c-1.97919,0-3.60089,1.48743-3.84937,3.40039H37.82086c-0.2265-1.74707-1.59839-3.12207-3.34991-3.34973V24.6893l15.14551,0.05957   h0.01367c3.7749,0,6.84619-3.06836,6.84619-6.83936c0-3.63721-2.85107-6.62109-6.49707-6.83398   c-0.67236-3.08838-3.45508-5.37207-6.64795-5.39111c-1.39502-2.58984-4.06055-4.18506-7.03174-4.18506   c-3.26953,0-6.17041,1.9585-7.39893,4.93311c-0.95703-0.49072-2.02344-0.74805-3.11816-0.74805   c-3.20801,0-6.01123,2.28809-6.6875,5.38721c-3.61328,0.17871-6.49805,3.17725-6.49805,6.83789   c0,3.26123,2.31641,6.08203,5.60254,6.71582l15.27148,0.06006v2.44983c-1.74097,0.23474-3.11182,1.60901-3.33905,3.34753H13.92053   c-0.24786-1.91296-1.86542-3.40039-3.83923-3.40039c-2.15088,0-3.90039,1.74951-3.90039,3.90039   c0,1.96802,1.48193,3.58874,3.39014,3.8468v3.12695l-8.07764,0.02185l0.07715,28.52246l18.61328-0.05029l-0.07715-28.52246   l-9.53564,0.02576V34.8331c1.74652-0.22363,3.12256-1.60034,3.34949-3.35034h16.21143   c0.22729,1.73779,1.59808,3.11206,3.34094,3.34692v3.12488l-8.81836,0.0238l0.07715,28.52246l18.61328-0.05029l-0.07715-28.52246   l-8.79492,0.02368v-3.1189c1.74603-0.22424,3.12115-1.60059,3.34802-3.3501h16.21082   c0.22705,1.74707,1.60229,3.12231,3.34937,3.34936v3.12036l-9.56543,0.02588l0.07764,28.52246l18.61328-0.05029l-0.07764-28.52246   L58.3811,37.94979z M13.59692,17.90951c0-3.22363,2.61963-5.84619,5.91504-5.84619h0.4292l0.06494-0.42432   c0.43262-2.82471,2.91602-4.95459,5.77637-4.95459c1.1123,0,2.18945,0.31006,3.11475,0.89697l0.54297,0.34424l0.19971-0.61133   c0.94238-2.87988,3.61865-4.81494,6.65967-4.81494c2.69482,0,5.10156,1.49902,6.28125,3.91211l0.15088,0.30859l0.34229-0.03027   c0.06836-0.00586,0.14111-0.00586,0.2168-0.00537c2.86035,0,5.34375,2.12988,5.77637,4.95459l0.13379,0.42432h0.4292   c3.22363,0,5.84619,2.62256,5.84619,5.84619c0,3.21973-2.62256,5.83936-5.84619,5.83936v0.5l-0.01172-0.5l-31.3208-0.11426   C15.57397,23.10141,13.59692,20.69369,13.59692,17.90951z M19.18091,65.45346L2.56763,65.49789L2.49634,38.97543L19.10962,38.931   L19.18091,65.45346z M42.34204,65.45346l-16.61328,0.04443l-0.07129-26.52246L42.27075,38.931L42.34204,65.45346z    M10.0813,33.88266v0.5l-0.00732-0.5c-1.59521-0.00879-2.89307-1.30957-2.89307-2.8999c0-1.59912,1.30127-2.90039,2.90039-2.90039   c1.59326,0,2.88965,1.30127,2.88965,2.90039C12.97095,32.58187,11.67456,33.88266,10.0813,33.88266z M33.9812,33.88266v0.5   l-0.00732-0.5c-1.59521-0.00879-2.89258-1.30957-2.89258-2.8999c0-1.59082,1.29736-2.8916,2.8999-2.90039   c1.59375,0,2.89014,1.30127,2.89014,2.90039C36.87134,32.58187,35.57495,33.88266,33.9812,33.88266z M54.9812,30.98276   c0-1.59912,1.30078-2.90039,2.8999-2.90039c1.59375,0,2.89014,1.30127,2.89014,2.90039c0,1.59912-1.29639,2.8999-2.89014,2.8999   C56.28198,33.88266,54.9812,32.58187,54.9812,30.98276z M48.89038,65.49789L48.8186,38.97543L65.43188,38.931l0.07178,26.52246   L48.89038,65.49789z"></path><path d="M57.16821,55.50863c-1.03418,0.00293-2.00732,0.4082-2.74023,1.14209c-0.73438,0.73535-1.13721,1.70947-1.13428,2.74316   c0.00537,2.13672,1.74854,3.875,3.88574,3.875h0.01025c1.03906-0.00293,2.01416-0.40967,2.74512-1.14453   c0.73145-0.73486,1.13232-1.7124,1.12939-2.75146C61.05884,57.24203,59.31616,55.50863,57.16821,55.50863z M59.22583,61.41928   c-0.54248,0.54541-1.2666,0.84717-2.03906,0.84961l-0.00732,0.5v-0.5c-1.5874,0-2.88184-1.29102-2.88574-2.87793   c-0.00244-0.76563,0.29688-1.48779,0.84131-2.0332c0.54492-0.54541,1.26807-0.84717,2.04443-0.84912   c1.58643,0,2.88086,1.28613,2.88477,2.86719C60.06665,60.14779,59.7688,60.87338,59.22583,61.41928z"></path><path d="M63.23315,41.27328l-12.20313,0.0332l0.01172,4.375l12.20361-0.03369L63.23315,41.27328z M52.03882,44.67855   l-0.00586-2.375l10.20313-0.02734l0.00635,2.37451L52.03882,44.67855z"></path><path d="M51.04761,47.8973l0.01221,4.375l12.20313-0.0332l-0.01172-4.375L51.04761,47.8973z M52.05688,51.26937l-0.00635-2.375   l10.20361-0.02734l0.00586,2.375L52.05688,51.26937z"></path></g></svg>