<svg height='100px' width='100px'  fill="#000000" xmlns="http://www.w3.org/2000/svg" xmlns:xlink="http://www.w3.org/1999/xlink" version="1.1" x="0px" y="0px" viewBox="0 0 96 96" enable-background="new 0 0 96 96" xml:space="preserve"><path d="M19.283,37.009c2.434,0,4.439-1.796,4.804-4.129h15.858c-6.936,2.675-12.218,8.695-13.86,16.075h-4.67v9.76h4.669  c1.885,8.471,8.565,15.151,17.037,17.036v4.669h9.76v-4.67c8.47-1.886,15.15-8.565,17.035-17.036h4.67v-9.76h-4.671  c-1.643-7.38-6.924-13.4-13.86-16.075h15.859c0.364,2.333,2.37,4.129,4.804,4.129c2.691,0,4.881-2.189,4.881-4.879  c0-2.691-2.189-4.881-4.881-4.881c-2.434,0-4.439,1.797-4.804,4.131H52.881v-4.131h-9.76v4.131H24.087  c-0.364-2.334-2.37-4.131-4.804-4.131c-2.691,0-4.881,2.189-4.881,4.881C14.402,34.82,16.592,37.009,19.283,37.009z M76.718,28.749  c1.864,0,3.381,1.517,3.381,3.381c0,1.863-1.517,3.379-3.381,3.379c-1.863,0-3.379-1.516-3.379-3.379  C73.338,30.265,74.854,28.749,76.718,28.749z M44.621,31.379v-2.631h6.76v2.631v0.255v1.245v0.298v2.331h-6.76v-2.331v-0.298v-1.245  V31.379z M22.915,57.215v-6.76h2.884h1.543h2.333v6.76h-2.333h-1.543H22.915z M51.381,76.036v2.884h-6.76v-2.884v-1.544V72.16h6.76  v2.333V76.036z M73.086,50.455v6.76h-2.885h-1.543h-2.332v-6.76h2.332h1.543H73.086z M68.359,48.955h-3.533v9.76h3.533  c-1.831,7.636-7.842,13.647-15.478,15.479V70.66h-9.76v3.534c-7.637-1.831-13.648-7.842-15.479-15.479h3.534v-9.76h-3.534  c1.832-7.636,7.843-13.647,15.479-15.478v3.532h9.76v-3.532C60.517,35.309,66.527,41.319,68.359,48.955z M19.283,28.749  c1.863,0,3.379,1.517,3.379,3.381c0,1.863-1.516,3.379-3.379,3.379c-1.864,0-3.381-1.516-3.381-3.379  C15.902,30.265,17.419,28.749,19.283,28.749z"></path><path d="M4.75,85.848h86.5V10.153H4.75V85.848z M89.75,84.348H6.25v-62.61h83.5V84.348z M6.25,11.653h83.5v8.585H6.25V11.653z"></path><rect x="37.195" y="15.124" width="21.61" height="1.5"></rect></svg>