<svg height='100px' width='100px'  fill="#000000" xmlns:dc="http://purl.org/dc/elements/1.1/" xmlns:cc="http://creativecommons.org/ns#" xmlns:rdf="http://www.w3.org/1999/02/22-rdf-syntax-ns#" xmlns:svg="http://www.w3.org/2000/svg" xmlns="http://www.w3.org/2000/svg" xmlns:sodipodi="http://sodipodi.sourceforge.net/DTD/sodipodi-0.dtd" xmlns:inkscape="http://www.inkscape.org/namespaces/inkscape" viewBox="0 0 16.933333 16.933334" version="1.1" x="0px" y="0px"><g transform="translate(0,-280.06665)"><path d="m 0.40946005,288.1523 h 0.0037 1.38596695 v -0.38246 -0.004 c 0,-0.0799 0.0648,-0.14473 0.144701,-0.14473 h 1.5306929 0.0037 c 0.0799,0 0.144729,0.0648 0.144729,0.14473 v 1.53066 0.004 c 0,0.0799 -0.06482,0.14472 -0.144729,0.14472 H 1.947554 1.943854 c -0.0799,0 -0.1447,-0.0648 -0.1447,-0.14472 v -0.38624 H 0.40940305 c -0.0799,0 -0.144727,-0.0648 -0.144727,-0.14473 v -0.004 -0.46876 c 0,-0.0799 0.06482,-0.14473 0.144727,-0.14473 z M 1.799211,288.44172 H 0.55418705 v 0.18312 H 1.799211 Z m 0.289427,-0.14848 v 0.004 0.004 0.46876 0.004 0.38246 h 1.245025 v -1.245 H 2.088638 Z m -1.67917795,-3.14259 h 0.0037 1.38596695 v -0.38245 -0.004 c 0,-0.0799 0.0648,-0.1447 0.144701,-0.1447 h 1.5306929 0.0037 c 0.0799,0 0.144729,0.0648 0.144729,0.1447 v 1.53069 0.004 c 0,0.0799 -0.06482,0.14473 -0.144729,0.14473 H 1.947554 1.943854 c -0.0799,0 -0.1447,-0.0648 -0.1447,-0.14473 v -0.38624 H 0.40940305 c -0.0799,0 -0.144727,-0.0648 -0.144727,-0.1447 v -0.004 -0.46877 c 0,-0.0799 0.06482,-0.14472 0.144727,-0.14472 z M 1.799211,285.44008 H 0.55418705 v 0.18312 H 1.799211 Z m 0.289427,-0.14849 v 0.004 0.004 0.46879 0.004 0.38248 h 1.245025 v -1.24503 H 2.088638 Z m -1.67917795,5.86235 h 0.0037 1.38596695 v -0.38248 -0.004 c 0,-0.0799 0.0648,-0.14472 0.144701,-0.14472 h 1.5306929 0.0037 c 0.0799,0 0.144729,0.0648 0.144729,0.14472 v 1.53067 0.004 c 0,0.0799 -0.06482,0.1447 -0.144729,0.1447 H 1.947554 1.943854 c -0.0799,0 -0.1447,-0.0648 -0.1447,-0.1447 v -0.38624 H 0.40940305 c -0.0799,0 -0.144727,-0.0648 -0.144727,-0.14473 v -0.004 -0.46879 c 0,-0.0799 0.06482,-0.1447 0.144727,-0.1447 z M 1.799211,291.44337 H 0.55418705 v 0.18312 H 1.799211 Z m 0.289427,-0.14849 v 0.004 0.004 0.46876 0.004 0.38245 h 1.245025 v -1.24502 H 2.088638 Z m 14.29065,-2.85316 H 15.13429 v 0.18312 h 1.244998 z M 15.13429,288.1523 h 1.385941 0.0037 c 0.07991,0 0.144726,0.0648 0.144726,0.14472 v 0.46876 0.004 c 0,0.0799 -0.06482,0.14473 -0.144726,0.14473 h -1.389726 v 0.38623 c 0,0.0799 -0.06482,0.14473 -0.144725,0.14473 h -0.0037 -1.530668 c -0.0799,0 -0.144726,-0.0648 -0.144726,-0.14473 v -0.004 -1.53067 c 0,-0.0799 0.06482,-0.14472 0.144726,-0.14472 h 0.0037 1.530694 c 0.0799,0 0.144724,0.0648 0.144724,0.14472 v 0.004 z m -0.289452,0.14848 v -0.004 -0.004 -0.38245 h -1.245024 v 1.24499 h 1.245024 v -0.38245 -0.004 z m 1.53445,-2.8607 H 15.13429 v 0.18312 h 1.244998 z m -1.244998,-0.28943 h 1.385941 0.0037 c 0.07991,0 0.144726,0.0648 0.144726,0.14473 v 0.46876 0.004 c 0,0.0799 -0.06482,0.1447 -0.144726,0.1447 h -1.389726 v 0.38624 c 0,0.0799 -0.06482,0.14473 -0.144725,0.14473 h -0.0037 -1.530668 c -0.0799,0 -0.144726,-0.0648 -0.144726,-0.14473 v -0.004 -1.53069 c 0,-0.0799 0.06482,-0.14471 0.144726,-0.14471 h 0.0037 1.530694 c 0.0799,0 0.144724,0.0648 0.144724,0.14471 v 0.004 z m -0.289452,0.14848 v -0.004 -0.004 -0.38246 h -1.245024 v 1.24502 h 1.245024 v -0.38248 -0.004 z m 1.53445,6.14424 H 15.13429 v 0.18312 h 1.244998 z m -1.244998,-0.28943 h 1.385941 0.0037 c 0.07991,0 0.144726,0.0648 0.144726,0.1447 v 0.46879 0.004 c 0,0.0799 -0.06482,0.14473 -0.144726,0.14473 h -1.389726 v 0.38624 c 0,0.0799 -0.06482,0.1447 -0.144725,0.1447 h -0.0037 -1.530668 c -0.0799,0 -0.144726,-0.0648 -0.144726,-0.1447 v -0.004 -1.53067 c 0,-0.0799 0.06482,-0.14473 0.144726,-0.14473 h 0.0037 1.530694 c 0.0799,0 0.144724,0.0648 0.144724,0.14473 v 0.004 z m -0.289452,0.14848 v -0.004 -0.004 -0.38249 h -1.245024 v 1.24503 h 1.245024 v -0.38246 -0.004 z m -8.3951799,-6.20426 h 0.0037 4.0302409 c 0.0799,0 0.144727,0.0648 0.144727,0.1447 v 0.004 6.57672 c 0,0.0799 -0.06482,0.14473 -0.144727,0.14473 h -0.0037 -4.0302379 c -0.0799,0 -0.14473,-0.0648 -0.14473,-0.14473 v -0.004 -6.57675 c 0,-0.0799 0.06482,-0.1447 0.14473,-0.1447 z m 3.8892979,0.28942 H 6.59436 v 6.29108 h 3.744596 z m -5.7013749,-2.0175 h 0.0037 7.6547139 c 0.0799,0 0.144727,0.0648 0.144727,0.14473 v 0.004 10.03302 c 0,0.0799 -0.06482,0.14473 -0.144727,0.14473 h -0.0037 -7.6547108 c -0.0799,0 -0.144725,-0.0648 -0.144725,-0.14473 v -0.004 -10.03303 c 0,-0.0799 0.06482,-0.14473 0.144725,-0.14473 z m 7.5137709,0.28943 H 4.7822801 v 9.74738 h 7.3690719 z" style="" fill="#000000" fill-rule="evenodd" stroke-width="0.26458335"></path></g></svg>