<svg height='100px' width='100px'  fill="#000000" xmlns="http://www.w3.org/2000/svg" xmlns:xlink="http://www.w3.org/1999/xlink" viewBox="0 0 128 128" version="1.1" x="0px" y="0px"><title>network-protocol</title><desc>Created with Sketch.</desc><g stroke="none" stroke-width="1" fill="none" fill-rule="evenodd"><g fill="#000000"><path d="M20,62 L44,62 C45.1045695,62 46,62.8954305 46,64 C46,65.1045695 45.1045695,66 44,66 L20,66 C18.8954305,66 18,65.1045695 18,64 C18,62.8954305 18.8954305,62 20,62 Z"></path><path d="M84,62 L108,62 C109.104569,62 110,62.8954305 110,64 C110,65.1045695 109.104569,66 108,66 L84,66 C82.8954305,66 82,65.1045695 82,64 C82,62.8954305 82.8954305,62 84,62 Z"></path><path d="M16.8550164,120.963627 L16.4943116,124.085467 L22.5076805,124.085467 L22.1469757,120.963627 L16.8550164,120.963627 Z M12.8419211,120.963627 L3.91973808,120.963627 C1.75849898,120.963627 -3.55271368e-15,119.247105 -3.55271368e-15,117.139129 L-3.55271368e-15,95.8244985 C-3.55271368e-15,93.7165226 1.75849898,92 3.91973808,92 L35.082254,92 C37.2434931,92 39.0019921,93.7145653 38.9999983,95.8244985 L38.9999983,117.139129 C38.9999983,119.247105 37.2414993,120.963627 35.0802602,120.963627 L26.160071,120.963627 L26.5207758,124.085467 L29.0790336,124.085467 L29.0790336,128 L9.92295852,128 L9.92295852,124.085467 L12.4812162,124.085467 L12.8419211,120.963627 Z M35.014466,95.9145327 L3.98752603,95.9145327 L3.98752603,117.051052 L35.014466,117.051052 L35.014466,95.9145327 Z" fill-rule="nonzero"></path><path d="M105.855016,120.963627 L105.494312,124.085467 L111.507681,124.085467 L111.146976,120.963627 L105.855016,120.963627 Z M101.841921,120.963627 L92.9197381,120.963627 C90.758499,120.963627 89,119.247105 89,117.139129 L89,95.8244985 C89,93.7165226 90.758499,92 92.9197381,92 L124.082254,92 C126.243493,92 128.001992,93.7145653 127.999998,95.8244985 L127.999998,117.139129 C127.999998,119.247105 126.241499,120.963627 124.08026,120.963627 L115.160071,120.963627 L115.520776,124.085467 L118.079034,124.085467 L118.079034,128 L98.9229585,128 L98.9229585,124.085467 L101.481216,124.085467 L101.841921,120.963627 Z M124.014466,95.9145327 L92.987526,95.9145327 L92.987526,117.051052 L124.014466,117.051052 L124.014466,95.9145327 Z" fill-rule="nonzero"></path><path d="M105.855016,28.9636275 L105.494312,32.0854673 L111.507681,32.0854673 L111.146976,28.9636275 L105.855016,28.9636275 Z M101.841921,28.9636275 L92.9197381,28.9636275 C90.758499,28.9636275 89,27.2471049 89,25.139129 L89,3.82449845 C89,1.71652259 90.758499,1.42108547e-14 92.9197381,1.42108547e-14 L124.082254,1.42108547e-14 C126.243493,1.42108547e-14 128.001992,1.71456532 127.999998,3.82449845 L127.999998,25.139129 C127.999998,27.2471049 126.241499,28.9636275 124.08026,28.9636275 L115.160071,28.9636275 L115.520776,32.0854673 L118.079034,32.0854673 L118.079034,36 L98.9229585,36 L98.9229585,32.0854673 L101.481216,32.0854673 L101.841921,28.9636275 Z M124.014466,3.9145327 L92.987526,3.9145327 L92.987526,25.051052 L124.014466,25.051052 L124.014466,3.9145327 Z" fill-rule="nonzero"></path><path d="M16.8550164,28.9636275 L16.4943116,32.0854673 L22.5076805,32.0854673 L22.1469757,28.9636275 L16.8550164,28.9636275 Z M12.8419211,28.9636275 L3.91973808,28.9636275 C1.75849898,28.9636275 -3.55271368e-15,27.2471049 -3.55271368e-15,25.139129 L-3.55271368e-15,3.82449845 C-3.55271368e-15,1.71652259 1.75849898,1.42108547e-14 3.91973808,1.42108547e-14 L35.082254,1.42108547e-14 C37.2434931,1.42108547e-14 39.0019921,1.71456532 38.9999983,3.82449845 L38.9999983,25.139129 C38.9999983,27.2471049 37.2414993,28.9636275 35.0802602,28.9636275 L26.160071,28.9636275 L26.5207758,32.0854673 L29.0790336,32.0854673 L29.0790336,36 L9.92295852,36 L9.92295852,32.0854673 L12.4812162,32.0854673 L12.8419211,28.9636275 Z M35.014466,3.9145327 L3.98752603,3.9145327 L3.98752603,25.051052 L35.014466,25.051052 L35.014466,3.9145327 Z" fill-rule="nonzero"></path><polygon points="106.5 34 110.5 34 110.5 94 106.5 94"></polygon><polygon points="17.5 34 21.5 34 21.5 94 17.5 94"></polygon><path d="M80,46 L84,50 L84,88 C84,89.1045695 83.1045695,90 82,90 L46,90 C44.8954305,90 44,89.1045695 44,88 L44,40 C44,38.8954305 44.8954305,38 46,38 L72,38 L76,42 L76,46 L80,46 Z M80,50 L74,50 C72.8954305,50 72,49.1045695 72,48 L72,42 L48,42 L48,86 L80,86 L80,50 Z M54,54 L74,54 C75.1045695,54 76,54.8954305 76,56 C76,57.1045695 75.1045695,58 74,58 L54,58 C52.8954305,58 52,57.1045695 52,56 C52,54.8954305 52.8954305,54 54,54 Z M54,62 L74,62 C75.1045695,62 76,62.8954305 76,64 C76,65.1045695 75.1045695,66 74,66 L54,66 C52.8954305,66 52,65.1045695 52,64 C52,62.8954305 52.8954305,62 54,62 Z M54,70 L74,70 C75.1045695,70 76,70.8954305 76,72 C76,73.1045695 75.1045695,74 74,74 L54,74 C52.8954305,74 52,73.1045695 52,72 C52,70.8954305 52.8954305,70 54,70 Z M54,78 L74,78 C75.1045695,78 76,78.8954305 76,80 C76,81.1045695 75.1045695,82 74,82 L54,82 C52.8954305,82 52,81.1045695 52,80 C52,78.8954305 52.8954305,78 54,78 Z" fill-rule="nonzero"></path></g></g></svg>