<svg height='100px' width='100px'  fill="#4CE600" xmlns="http://www.w3.org/2000/svg" data-name="Слой 1" viewBox="0 0 128 128" x="0px" y="0px"><title>ic_http</title><path d="M126,44h-6.49a59,59,0,0,0-111,0H2a2,2,0,0,0-2,2V82a2,2,0,0,0,2,2H8.47a59,59,0,0,0,111,0H126a2,2,0,0,0,2-2V46A2,2,0,0,0,126,44Zm-10.75,0H92.63a88.84,88.84,0,0,0-3-11.88,53.78,53.78,0,0,0,11.62-8.57A54.9,54.9,0,0,1,115.25,44ZM39.43,44A88.52,88.52,0,0,1,42,33.91,53.38,53.38,0,0,0,62,38.6V44Zm45.3-13.88A49.27,49.27,0,0,1,66,34.6V9.16C73.42,10.36,80.19,18.13,84.73,30.12ZM62,9.16V34.6a49.27,49.27,0,0,1-18.73-4.48C47.8,18.13,54.58,10.35,62,9.16ZM66,38.6a53.29,53.29,0,0,0,20-4.69A86.46,86.46,0,0,1,88.56,44H66ZM98.2,20.93a48.79,48.79,0,0,1-9.93,7.37c-3-7.64-6.89-13.73-11.36-17.76A55.13,55.13,0,0,1,98.2,20.93ZM39.73,28.3a48.88,48.88,0,0,1-9.93-7.37A55.09,55.09,0,0,1,51.08,10.54C46.61,14.57,42.71,20.66,39.73,28.3Zm-13-4.76a53.26,53.26,0,0,0,11.62,8.58,88.84,88.84,0,0,0-3,11.88H12.75A54.9,54.9,0,0,1,26.74,23.54ZM12.73,84H35.35a90.5,90.5,0,0,0,3,11.86,53.8,53.8,0,0,0-11.6,8.59A54.81,54.81,0,0,1,12.73,84Zm75.82,0A88.15,88.15,0,0,1,86,94.07a53.2,53.2,0,0,0-20-4.7V84ZM43.25,97.86A49.2,49.2,0,0,1,62,93.37v25.47C54.56,117.64,47.78,109.86,43.25,97.86Zm22.73,21V93.37a49.29,49.29,0,0,1,18.74,4.49C80.19,109.86,73.41,117.64,66,118.84ZM62,89.37a53.29,53.29,0,0,0-20,4.7A88.18,88.18,0,0,1,39.42,84H62Zm-32.2,17.69a50,50,0,0,1,9.92-7.38c3,7.65,6.9,13.75,11.37,17.78A55,55,0,0,1,29.78,107.06Zm58.48-7.38a49.13,49.13,0,0,1,9.92,7.39A55,55,0,0,1,76.9,117.46C81.37,113.42,85.28,107.33,88.26,99.68Zm13,4.78a53.82,53.82,0,0,0-11.61-8.6,88.94,88.94,0,0,0,3-11.86h22.62A54.9,54.9,0,0,1,101.24,104.46ZM124,80H4V48H124Z"></path><path d="M23.85,57.23a2.27,2.27,0,0,0-.19-.34,2.16,2.16,0,0,0-.55-.55,2.27,2.27,0,0,0-.34-.19,2.72,2.72,0,0,0-.38-.11,2,2,0,0,0-.78,0,2.38,2.38,0,0,0-.38.11,2.27,2.27,0,0,0-.34.19,2.16,2.16,0,0,0-.55.55,1.63,1.63,0,0,0-.19.34,1.82,1.82,0,0,0-.11.38A1.72,1.72,0,0,0,20,58a2,2,0,0,0,.59,1.41,1.88,1.88,0,0,0,.64.44A2,2,0,0,0,22,60a2,2,0,0,0,2-2,1.72,1.72,0,0,0,0-.39A2.72,2.72,0,0,0,23.85,57.23Z"></path><path d="M23.85,69.23a2.27,2.27,0,0,0-.19-.34,2.16,2.16,0,0,0-.55-.55,2,2,0,0,0-.35-.19,1.58,1.58,0,0,0-.37-.11,2,2,0,0,0-.78,0,1.82,1.82,0,0,0-.38.11,2.27,2.27,0,0,0-.34.19,2.16,2.16,0,0,0-.55.55,2.27,2.27,0,0,0-.19.34,1.82,1.82,0,0,0-.11.38A1.72,1.72,0,0,0,20,70a2,2,0,0,0,2,2,2,2,0,0,0,.77-.15,2,2,0,0,0,.64-.44A2,2,0,0,0,24,70a1.72,1.72,0,0,0,0-.39A2.72,2.72,0,0,0,23.85,69.23Z"></path><path d="M37.3,52.1a2,2,0,0,0-2.53,1.27l-6.67,20a2,2,0,0,0,1.27,2.53A2,2,0,0,0,30,76a2,2,0,0,0,1.9-1.37l6.66-20A2,2,0,0,0,37.3,52.1Z"></path><path d="M50.63,52.1a2,2,0,0,0-2.53,1.27l-6.66,20A2,2,0,0,0,42.7,75.9a2,2,0,0,0,.63.1,2,2,0,0,0,1.9-1.37l6.67-20A2,2,0,0,0,50.63,52.1Z"></path></svg>