<svg height='100px' width='100px'  fill="#4CE600" xmlns="http://www.w3.org/2000/svg" data-name="Layer 1" viewBox="0 0 80 80" x="0px" y="0px"><title>Artboard 35</title><path d="M67,30H50V26.6572a1.9885,1.9885,0,0,1,.5859-1.415L53.42,22.4086A6.0223,6.0223,0,1,0,50.5914,19.58l-2.8336,2.8337A5.9594,5.9594,0,0,0,46,26.6572V30H42V16.65a6,6,0,1,0-4,0V30H34V26.6572a5.9594,5.9594,0,0,0-1.7578-4.2431L29.4086,19.58A6.0223,6.0223,0,1,0,26.58,22.4086l2.8337,2.8336A1.9885,1.9885,0,0,1,30,26.6572V30H13a6.0066,6.0066,0,0,0-6,6v8a6.0066,6.0066,0,0,0,6,6H30v3.3428a1.9885,1.9885,0,0,1-.5859,1.415L26.58,57.5914A6.0223,6.0223,0,1,0,29.4086,60.42l2.8336-2.8337A5.9594,5.9594,0,0,0,34,53.3428V50h4V63.35a6,6,0,1,0,4,0V50h4v3.3428a5.9594,5.9594,0,0,0,1.7578,4.2431L50.5914,60.42A6.0223,6.0223,0,1,0,53.42,57.5914l-2.8337-2.8336A1.9885,1.9885,0,0,1,50,53.3428V50H67a6.0066,6.0066,0,0,0,6-6V36A6.0066,6.0066,0,0,0,67,30ZM56,15a2,2,0,1,1-2,2A2.0027,2.0027,0,0,1,56,15ZM40,9a2,2,0,1,1-2,2A2.0027,2.0027,0,0,1,40,9ZM24,19a2,2,0,1,1,2-2A2.0027,2.0027,0,0,1,24,19Zm0,46a2,2,0,1,1,2-2A2.0027,2.0027,0,0,1,24,65Zm16,6a2,2,0,1,1,2-2A2.0027,2.0027,0,0,1,40,71ZM56,61a2,2,0,1,1-2,2A2.0027,2.0027,0,0,1,56,61ZM69,44a2.0027,2.0027,0,0,1-2,2H13a2.0027,2.0027,0,0,1-2-2V36a2.0027,2.0027,0,0,1,2-2H67a2.0027,2.0027,0,0,1,2,2Z"></path><circle cx="63" cy="40" r="2"></circle><circle cx="57" cy="40" r="2"></circle><circle cx="51" cy="40" r="2"></circle></svg>