<svg height='100px' width='100px'  fill="#4CE600" xmlns="http://www.w3.org/2000/svg" xmlns:xlink="http://www.w3.org/1999/xlink" version="1.1" x="0px" y="0px" viewBox="0 0 100 100" style="enable-background:new 0 0 100 100;" xml:space="preserve"><path d="M71,14.9H44.1v-3.1H71V14.9z M71,21.1H44.1v3.1H71V21.1z M71,30.5H44.1v3.1H71V30.5z M71,39.8H44.1V43H71V39.8z M35.3,42.2  c0,1.7-1.4,3.1-3.1,3.1c-1.7,0-3.1-1.4-3.1-3.1c0-1.7,1.4-3.1,3.1-3.1C33.9,39.1,35.3,40.5,35.3,42.2z M98.9,96.1  c-0.3,0.5-0.8,0.7-1.3,0.7H67.9c-0.5,0-1-0.3-1.3-0.7c-0.3-0.5-0.3-1-0.1-1.5l3-6.1v-3.4H59.4v1.6c0,0.9-0.7,1.6-1.6,1.6H42.2  c-0.9,0-1.6-0.7-1.6-1.6v-1.6H30.5v3.4l3,6.1c0.2,0.5,0.2,1.1-0.1,1.5c-0.3,0.5-0.8,0.7-1.3,0.7H2.4c-0.5,0-1-0.3-1.3-0.7  c-0.3-0.5-0.3-1-0.1-1.5l3-6.1V73.4c0-0.9,0.7-1.6,1.6-1.6h23.4c0.9,0,1.6,0.7,1.6,1.6v8.6h10.1v-1.6c0-0.9,0.7-1.6,1.6-1.6h6.2  V50.8H32.2c-4.8,0-8.7-3.8-8.7-8.6c0-4.7,3.8-8.5,8.6-8.6v0h5.7V4.8c0-0.9,0.7-1.6,1.6-1.6H75c0.9,0,1.6,0.7,1.6,1.6v41  c0,2.8-2.2,5-5,5h-20v28.1h6.2c0.9,0,1.6,0.7,1.6,1.6v1.6h10.1v-8.6c0-0.9,0.7-1.6,1.6-1.6h23.4c0.9,0,1.6,0.7,1.6,1.6v15.1l3,6.1  C99.2,95,99.2,95.6,98.9,96.1z M40.9,42.6L40.9,42.6c-0.1,1.9-0.8,3.6-2,5h32.7c1,0,1.9-0.8,1.9-1.9V6.3H40.9V42.6z M32.2,47.6  c3.1,0,5.6-2.4,5.6-5.5s-2.5-5.5-5.6-5.5s-5.6,2.4-5.6,5.5S29.1,47.6,32.2,47.6z M7.1,87.4h20.3V74.9H7.1V87.4z M29.6,93.7L28,90.5  H6.5l-1.5,3.2H29.6z M56.2,81.9H43.8v3.1h12.5V81.9z M72.6,87.4h20.3V74.9H72.6V87.4z M95.1,93.7l-1.5-3.2H72l-1.5,3.2H95.1z"></path></svg>