<svg height='100px' width='100px'  fill="#4CE600" xmlns="http://www.w3.org/2000/svg" xmlns:xlink="http://www.w3.org/1999/xlink" version="1.1" x="0px" y="0px" viewBox="0 0 64 64" style="enable-background:new 0 0 64 64;" xml:space="preserve"><path d="M59.521,49.294c-0.086-0.239-0.182-0.472-0.289-0.699c-0.187-0.397-0.134-0.864,0.177-1.175l1.077-1.077l-2.828-2.828  l-1.077,1.077c-0.31,0.31-0.778,0.364-1.175,0.177c-0.227-0.107-0.461-0.204-0.699-0.289C54.293,44.331,54,43.963,54,43.524V42h-4  v1.524c0,0.439-0.293,0.807-0.706,0.955c-0.239,0.086-0.472,0.182-0.699,0.289c-0.397,0.187-0.864,0.134-1.175-0.177l-1.077-1.077  l-2.828,2.828l1.077,1.077c0.31,0.31,0.364,0.778,0.177,1.175c-0.107,0.227-0.204,0.461-0.289,0.699  C44.331,49.707,43.963,50,43.524,50H42v4h1.524c0.439,0,0.807,0.293,0.955,0.706c0.086,0.239,0.182,0.472,0.289,0.699  c0.187,0.397,0.134,0.864-0.177,1.175l-1.077,1.077l2.828,2.828l1.077-1.077c0.31-0.31,0.778-0.364,1.175-0.177  c0.227,0.107,0.461,0.204,0.699,0.289C49.707,59.669,50,60.037,50,60.476V62h4v-1.524c0-0.439,0.293-0.807,0.706-0.955  c0.239-0.086,0.472-0.182,0.699-0.289c0.397-0.187,0.864-0.134,1.175,0.177l1.077,1.077l2.828-2.828l-1.077-1.077  c-0.31-0.31-0.364-0.778-0.177-1.175c0.107-0.227,0.204-0.461,0.289-0.699C59.669,54.293,60.037,54,60.476,54H62v-4h-1.524  C60.037,50,59.669,49.707,59.521,49.294z M52,56c-2.209,0-4-1.791-4-4c0-2.209,1.791-4,4-4s4,1.791,4,4C56,54.209,54.209,56,52,56z"></path><path d="M4.479,54.706c0.086,0.239,0.182,0.472,0.289,0.699c0.187,0.397,0.134,0.864-0.177,1.175l-1.077,1.077l2.828,2.828  l1.077-1.077c0.31-0.31,0.778-0.364,1.175-0.177c0.227,0.107,0.461,0.204,0.699,0.289C9.707,59.669,10,60.037,10,60.476V62h4v-1.524  c0-0.439,0.293-0.807,0.706-0.955c0.239-0.086,0.472-0.182,0.699-0.289c0.397-0.187,0.864-0.134,1.175,0.177l1.077,1.077  l2.828-2.828l-1.077-1.077c-0.31-0.31-0.364-0.778-0.177-1.175c0.107-0.227,0.204-0.461,0.289-0.699  C19.669,54.293,20.037,54,20.476,54H22v-4h-1.524c-0.439,0-0.807-0.293-0.955-0.706c-0.086-0.239-0.182-0.472-0.289-0.699  c-0.187-0.397-0.134-0.864,0.177-1.175l1.077-1.077l-2.828-2.828l-1.077,1.077c-0.31,0.31-0.778,0.364-1.175,0.177  c-0.227-0.107-0.461-0.204-0.699-0.289C14.293,44.331,14,43.963,14,43.524V42h-4v1.524c0,0.439-0.293,0.807-0.706,0.955  c-0.239,0.086-0.472,0.182-0.699,0.289c-0.397,0.187-0.864,0.134-1.175-0.177l-1.077-1.077l-2.828,2.828l1.077,1.077  c0.31,0.31,0.364,0.778,0.177,1.175c-0.107,0.227-0.204,0.461-0.289,0.699C4.331,49.707,3.963,50,3.524,50H2v4h1.524  C3.963,54,4.331,54.293,4.479,54.706z M12,48c2.209,0,4,1.791,4,4c0,2.209-1.791,4-4,4s-4-1.791-4-4C8,49.791,9.791,48,12,48z"></path><path d="M59.521,9.294c-0.086-0.239-0.182-0.472-0.289-0.699c-0.187-0.397-0.134-0.864,0.177-1.175l1.077-1.077l-2.828-2.828  L56.58,4.592c-0.31,0.31-0.778,0.364-1.175,0.177c-0.227-0.107-0.461-0.204-0.699-0.289C54.293,4.331,54,3.963,54,3.524V2h-4v1.524  c0,0.439-0.293,0.807-0.706,0.955c-0.239,0.086-0.472,0.182-0.699,0.289c-0.397,0.187-0.864,0.134-1.175-0.177l-1.077-1.077  l-2.828,2.828l1.077,1.077c0.31,0.31,0.364,0.778,0.177,1.175c-0.107,0.227-0.204,0.461-0.289,0.699  C44.331,9.707,43.963,10,43.524,10H42v4h1.524c0.439,0,0.807,0.293,0.955,0.706c0.086,0.239,0.182,0.472,0.289,0.699  c0.187,0.397,0.134,0.864-0.177,1.175l-1.077,1.077l2.828,2.828l1.077-1.077c0.31-0.31,0.778-0.364,1.175-0.177  c0.227,0.107,0.461,0.204,0.699,0.289C49.707,19.669,50,20.037,50,20.476V22h4v-1.524c0-0.439,0.293-0.807,0.706-0.955  c0.239-0.086,0.472-0.182,0.699-0.289c0.397-0.187,0.864-0.134,1.175,0.177l1.077,1.077l2.828-2.828l-1.077-1.077  c-0.31-0.31-0.364-0.778-0.177-1.175c0.107-0.227,0.204-0.461,0.289-0.699C59.669,14.293,60.037,14,60.476,14H62v-4h-1.524  C60.037,10,59.669,9.707,59.521,9.294z M52,16c-2.209,0-4-1.791-4-4c0-2.209,1.791-4,4-4s4,1.791,4,4C56,14.209,54.209,16,52,16z"></path><path d="M4.479,14.706c0.086,0.239,0.182,0.472,0.289,0.699c0.187,0.397,0.134,0.864-0.177,1.175l-1.077,1.077l2.828,2.828  l1.077-1.077c0.31-0.31,0.778-0.364,1.175-0.177c0.227,0.107,0.461,0.204,0.699,0.289C9.707,19.669,10,20.037,10,20.476V22h4v-1.524  c0-0.439,0.293-0.807,0.706-0.955c0.239-0.086,0.472-0.182,0.699-0.289c0.397-0.187,0.864-0.134,1.175,0.177l1.077,1.077  l2.828-2.828l-1.077-1.077c-0.31-0.31-0.364-0.778-0.177-1.175c0.107-0.227,0.204-0.461,0.289-0.699  C19.669,14.293,20.037,14,20.476,14H22v-4h-1.524c-0.439,0-0.807-0.293-0.955-0.706c-0.086-0.239-0.182-0.472-0.289-0.699  c-0.187-0.397-0.134-0.864,0.177-1.175l1.077-1.077l-2.828-2.828L16.58,4.592c-0.31,0.31-0.778,0.364-1.175,0.177  c-0.227-0.107-0.461-0.204-0.699-0.289C14.293,4.331,14,3.963,14,3.524V2h-4v1.524c0,0.439-0.293,0.807-0.706,0.955  C9.056,4.565,8.823,4.661,8.595,4.769C8.198,4.956,7.731,4.902,7.42,4.592L6.343,3.515L3.515,6.343L4.592,7.42  c0.31,0.31,0.364,0.778,0.177,1.175C4.661,8.823,4.565,9.056,4.479,9.294C4.331,9.707,3.963,10,3.524,10H2v4h1.524  C3.963,14,4.331,14.293,4.479,14.706z M12,8c2.209,0,4,1.791,4,4c0,2.209-1.791,4-4,4s-4-1.791-4-4C8,9.791,9.791,8,12,8z"></path><circle cx="32" cy="30" r="1"></circle><circle cx="25" cy="34" r="1"></circle><circle cx="39" cy="34" r="1"></circle><path d="M32,19c-7.18,0-13,5.82-13,13s5.82,13,13,13s13-5.82,13-13S39.18,19,32,19z M26,36.816V39h-2v-2.184  c-1.161-0.414-2-1.514-2-2.816s0.839-2.402,2-2.816V25h2v6.184c1.161,0.414,2,1.514,2,2.816S27.161,36.402,26,36.816z M33,32.816V39  h-2v-6.184c-1.161-0.414-2-1.514-2-2.816s0.839-2.402,2-2.816V25h2v2.184c1.161,0.414,2,1.514,2,2.816S34.161,32.402,33,32.816z   M40,36.816V39h-2v-2.184c-1.161-0.414-2-1.514-2-2.816s0.839-2.402,2-2.816V25h2v6.184c1.161,0.414,2,1.514,2,2.816  S41.161,36.402,40,36.816z"></path><rect x="27" y="12" width="2" height="2"></rect><rect x="31" y="12" width="2" height="2"></rect><rect x="35" y="12" width="2" height="2"></rect><rect x="27" y="50" width="2" height="2"></rect><rect x="31" y="50" width="2" height="2"></rect><rect x="35" y="50" width="2" height="2"></rect><rect x="50" y="27" width="2" height="2"></rect><rect x="50" y="31" width="2" height="2"></rect><rect x="50" y="35" width="2" height="2"></rect><rect x="12" y="27" width="2" height="2"></rect><rect x="12" y="31" width="2" height="2"></rect><rect x="12" y="35" width="2" height="2"></rect></svg>