<svg height='100px' width='100px'  fill="#000000" xmlns="http://www.w3.org/2000/svg" xmlns:xlink="http://www.w3.org/1999/xlink" version="1.1" x="0px" y="0px" viewBox="0 0 128 128" style="enable-background:new 0 0 128 128;" xml:space="preserve"><g><g><path d="M100.514,62.435v3.342c-2.015,0.915-3.422,2.952-3.422,5.317c0,3.217,2.6,5.835,5.798,5.835    c3.197,0,5.799-2.618,5.799-5.835c0-2.365-1.408-4.402-3.423-5.317v-5.719c0-1.31-1.066-2.377-2.376-2.377H75.922    c-0.353-2.272-2.304-4.021-4.671-4.021h-4.329V43.342h20.065h1.375l-2.465-9.212H43.289l-2.546,9.212h21.429v10.317h-4.328    c-2.368,0-4.318,1.749-4.671,4.021H26.206c-1.31,0-2.376,1.067-2.376,2.377v4.212c0,0.129,0.018,0.253,0.038,0.377    c-2.035,0.907-3.461,2.955-3.461,5.336c0,3.217,2.601,5.835,5.798,5.835s5.798-2.618,5.798-5.835c0-2.38-1.425-4.429-3.461-5.336    c0.02-0.123,0.038-0.248,0.038-0.377v-1.835h24.592c0.353,2.272,2.304,4.02,4.671,4.02h13.407c2.367,0,4.317-1.748,4.67-4.02    H100.514z"></path><path d="M45.885,84.087c0-0.276-0.224-0.499-0.499-0.499H6.385c-0.275,0-0.499,0.224-0.499,0.499v21.403h39.998    V84.087z"></path><polygon points="4.597,109.717 2,120 49.684,120 47.168,109.717   "></polygon><path d="M84.596,8.499C84.596,8.224,84.372,8,84.097,8H45.096c-0.275,0-0.499,0.224-0.499,0.499v21.403h39.999    V8.499z M59.306,19.526c0.733,0.295,1.111,1.107,0.863,1.856c-0.275,0.831-1.203,1.249-2.01,0.906l-4.366-1.856    c-0.678-0.288-1.118-0.952-1.118-1.687c0-0.735,0.44-1.399,1.118-1.687l4.366-1.855c0.807-0.343,1.735,0.076,2.01,0.906    c0.248,0.749-0.129,1.561-0.862,1.856l-1.94,0.781L59.306,19.526z M67.498,14.98l-3.252,9.42c-0.201,0.582-0.75,0.973-1.367,0.973    H62.86c-0.994,0-1.692-0.977-1.366-1.914l3.271-9.42c0.202-0.581,0.75-0.97,1.366-0.97C67.123,13.068,67.821,14.043,67.498,14.98z     M75.304,20.432l-4.366,1.855c-0.806,0.343-1.734-0.075-2.01-0.905c-0.249-0.749,0.129-1.561,0.862-1.856l1.939-0.78l-1.94-0.781    c-0.733-0.295-1.109-1.107-0.861-1.855c0.275-0.829,1.201-1.246,2.007-0.905l4.368,1.852c0.678,0.288,1.119,0.952,1.119,1.687    C76.422,19.481,75.982,20.144,75.304,20.432z"></path><polygon points="123.485,109.717 80.913,109.717 78.316,120 126,120   "></polygon><path d="M82.202,84.087v21.403h39.999V84.087c0-0.276-0.224-0.499-0.499-0.499H82.701    C82.426,83.587,82.202,83.811,82.202,84.087z"></path></g></g></svg>