<svg height='100px' width='100px'  fill="#4CE600" xmlns="http://www.w3.org/2000/svg" xmlns:xlink="http://www.w3.org/1999/xlink" version="1.1" x="0px" y="0px" viewBox="0 0 66 66" enable-background="new 0 0 66 66" xml:space="preserve"><g><path d="M39.4,58.9v2c10.8-2.4,19.1-10.8,21.5-21.5h-2.1C56.5,49,49,56.5,39.4,58.9z"></path><path d="M7.2,39.4H5.1c2.4,10.8,10.8,19.1,21.5,21.5v-2C17,56.5,9.5,49,7.2,39.4z"></path><path d="M58.8,26.6h2.1C58.5,15.9,50.1,7.5,39.4,5.1v2.1C49,9.5,56.5,17,58.8,26.6z"></path><path d="M26.6,7.2V5.1C15.9,7.5,7.5,15.9,5.1,26.6h2.1C9.5,17,17,9.5,26.6,7.2z"></path><path d="M36.4,56.3h-6.7c-0.6,0-1,0.5-1,1V64c0,0.6,0.4,1,1,1h6.7c0.5,0,1-0.4,1-1v-6.7   C37.4,56.7,36.9,56.3,36.4,56.3z"></path><path d="M29.6,9.7h6.7c0.5,0,1-0.5,1-1V2c0-0.6-0.5-1-1-1h-6.7c-0.6,0-1,0.5-1,1v6.7C28.6,9.3,29.1,9.7,29.6,9.7z"></path><path d="M64,28.6h-6.7c-0.5,0-1,0.4-1,1v6.8c0,0.5,0.4,1,1,1H64c0.6,0,1-0.5,1-1v-6.8C65,29.1,64.6,28.6,64,28.6z"></path><path d="M9.8,36.4v-6.8c0-0.6-0.5-1-1-1H2c-0.5,0-1,0.4-1,1v6.8c0,0.5,0.5,1,1,1h6.8C9.3,37.4,9.8,36.9,9.8,36.4z"></path><path d="M33,33.1c-0.4,0-0.7,0.2-0.9,0.6l-7.5,15.1c-0.2,0.4-0.1,0.9,0.2,1.2c0.3,0.3,0.8,0.4,1.2,0.1l7-4.5l7,4.5   c0.4,0.2,0.9,0.2,1.2-0.1c0.3-0.3,0.4-0.8,0.2-1.2l-7.6-15.1C33.7,33.4,33.4,33.1,33,33.1z"></path><path d="M49.9,29.3c1.9,0,3.5-1.6,3.5-3.5s-1.6-3.5-3.5-3.5c-1.6,0-2.9,1.1-3.4,2.5H37v-2c0-0.5-0.5-1-1-1H30   c-0.5,0-1,0.5-1,1v2h-9.5c-0.4-1.5-1.8-2.5-3.4-2.5c-1.9,0-3.5,1.6-3.5,3.5s1.6,3.5,3.5,3.5c1.6,0,2.9-1,3.4-2.5H29v2   c0,0.5,0.5,1,1,1H36c0.5,0,1-0.5,1-1v-2h9.5C47,28.2,48.3,29.3,49.9,29.3z"></path></g></svg>