<svg height='100px' width='100px'  fill="#000000" xmlns="http://www.w3.org/2000/svg" xmlns:xlink="http://www.w3.org/1999/xlink" version="1.1" x="0px" y="0px" viewBox="0 0 110 110" enable-background="new 0 0 110 110" xml:space="preserve"><path d="M92,61c-3.71,0-7,1.84-8.99,4.67l-15.5-7.13C67.83,57.41,68,56.23,68,55c0-5-2.82-9.33-6.95-11.51l5.67-16.58  C67.14,26.97,67.57,27,68,27c5.53,0,10-4.48,10-10S73.53,7,68,7c-5.52,0-10,4.48-10,10c0,3.67,1.98,6.89,4.94,8.62L57.27,42.2  C56.53,42.07,55.77,42,55,42c-3.94,0-7.47,1.75-9.85,4.52L25.64,34.39C25.87,33.64,26,32.83,26,32c0-4.42-3.58-8-8-8s-8,3.58-8,8  s3.58,8,8,8c2.14,0,4.08-0.84,5.52-2.21l19.51,12.13C42.37,51.48,42,53.2,42,55c0,2.14,0.52,4.17,1.44,5.95L25.55,74.01  C23.58,72.14,20.92,71,18,71c-6.07,0-11,4.92-11,11s4.93,11,11,11c6.08,0,11-4.92,11-11c0-1.71-0.39-3.32-1.08-4.76l17.89-13.05  c2.25,2.25,5.33,3.689,8.75,3.8l2.51,20.569C54.1,89.72,52,92.61,52,96c0,4.42,3.58,8,8,8s8-3.58,8-8c0-4.06-3.03-7.42-6.95-7.93  L58.54,67.5c3.03-0.84,5.61-2.77,7.3-5.33l15.5,7.13C81.12,70.16,81,71.07,81,72c0,6.08,4.93,11,11,11c6.08,0,11-4.92,11-11  S98.08,61,92,61z M62,17c0-3.31,2.69-6,6-6s6,2.69,6,6c0,3.29-2.66,5.97-5.94,6H68c-1.41,0-2.7-0.48-3.72-1.3  C62.89,20.61,62,18.91,62,17z M21.99,32.12c-0.04,1.48-0.88,2.75-2.11,3.41C19.32,35.83,18.68,36,18,36c-2.21,0-4-1.79-4-4  s1.79-4,4-4s4,1.79,4,4C22,32.04,22,32.08,21.99,32.12z M18,89c-3.86,0-7-3.14-7-7s3.14-7,7-7c1.59,0,3.05,0.53,4.23,1.43  c1.08,0.811,1.91,1.94,2.37,3.24C24.86,80.4,25,81.18,25,82C25,85.86,21.86,89,18,89z M60,92c0.56,0,1.09,0.12,1.57,0.33  C63,92.93,64,94.35,64,96c0,2.21-1.79,4-4,4s-4-1.79-4-4c0-1.3,0.62-2.46,1.59-3.19C58.26,92.3,59.1,92,60,92z M63.81,56.84  c-0.279,1.34-0.859,2.58-1.67,3.63c-1.04,1.36-2.46,2.41-4.09,2.99C57.1,63.81,56.07,64,55,64c-0.31,0-0.62-0.02-0.93-0.05  c-1.89-0.19-3.61-0.98-4.97-2.16c-1.01-0.88-1.83-1.99-2.37-3.24C46.26,57.46,46,56.26,46,55c0-1.03,0.17-2.01,0.5-2.93  c0.44-1.29,1.17-2.45,2.11-3.4C50.24,47.02,52.5,46,55,46c0.32,0,0.64,0.02,0.95,0.05c1.38,0.14,2.66,0.6,3.78,1.3  C62.29,48.94,64,51.77,64,55C64,55.63,63.93,56.25,63.81,56.84z M92,79c-3.86,0-7-3.14-7-7c0-0.33,0.02-0.66,0.08-0.98  c0.18-1.38,0.78-2.64,1.67-3.64C88.03,65.92,89.91,65,92,65c3.86,0,7,3.14,7,7S95.86,79,92,79z"></path></svg>