<svg height='100px' width='100px'  fill="#000000" xmlns="http://www.w3.org/2000/svg" xmlns:xlink="http://www.w3.org/1999/xlink" version="1.1" x="0px" y="0px" viewBox="0 0 64 64" enable-background="new 0 0 64 64" xml:space="preserve"><g><g><path d="M62.6,23.4h0.9v-5.7c0-0.9-0.8-1.7-1.7-1.7H2.2c-0.9,0-1.7,0.8-1.7,1.7v5.8h0.9c0.9,0,1.7,0.6,1.8,1.4    c0.2,1.1-0.7,2-1.7,2h-1V48h29.8v-0.9c0-0.9,0.6-1.7,1.4-1.8c1.1-0.2,2,0.7,2,1.7v1h29.8V26.8h-1c-1,0-1.9-0.9-1.7-2    C61,24,61.8,23.4,62.6,23.4z M59.8,42.2v2.9h-2v-2.9H59.8z M44.2,39v-0.6h-2.3v-2h2.3v-1h-2.3v-2h2.3v-1h-2.3v-2h2.3v-1h-2.3v-2    h2.3v-1h-2.3v-2h2.3v-1h-2.3v-2h2.3V21h10v0.6h2.3v2h-2.3v1h2.3v2h-2.3v1h2.3v2h-2.3v1h2.3v2h-2.3v1h2.3v2h-2.3v1h2.3v2h-2.3V39    H44.2z M53.9,42.2v2.9h-2v-2.9H53.9z M50.9,42.2v2.9h-2v-2.9H50.9z M48,42.2v2.9h-2v-2.9H48z M45,42.2v2.9h-2v-2.9H45z M42.1,42.2    v2.9h-2v-2.9H42.1z M54.9,42.2h2v2.9h-2V42.2z M19.8,38.4V39h-10v-0.6H7.5v-2h2.3v-1H7.5v-2h2.3v-1H7.5v-2h2.3v-1H7.5v-2h2.3v-1    H7.5v-2h2.3v-1H7.5v-2h2.3V21h10v0.6h2.3v2h-2.3v1h2.3v2h-2.3v1h2.3v2h-2.3v1h2.3v2h-2.3v1h2.3v2h-2.3v1h2.3v2H19.8z M21.2,42.2    v2.9h-2v-2.9H21.2z M18.2,42.2v2.9h-2v-2.9H18.2z M15.3,42.2v2.9h-2v-2.9H15.3z M12.3,42.2v2.9h-2v-2.9H12.3z M9.4,42.2v2.9h-2    v-2.9H9.4z M22.2,42.2h2v2.9h-2V42.2z M4.4,42.2h2v2.9h-2V42.2z M25.1,45.1v-2.9h2v2.9H25.1z M24.8,38.4v-2h2.3v-1h-2.3v-2h2.3v-1    h-2.3v-2h2.3v-1h-2.3v-2h2.3v-1h-2.3v-2h2.3v-1h-2.3v-2h2.3V21h10v0.6h2.3v2h-2.3v1h2.3v2h-2.3v1h2.3v2h-2.3v1h2.3v2h-2.3v1h2.3v2    h-2.3v1h2.3v2h-2.3V39h-10v-0.6H24.8z M39.1,42.2v2.9h-2v-2.9H39.1z"></path><rect x="46.1" y="23" width="6" height="14"></rect><rect x="11.8" y="23" width="6" height="14"></rect><rect x="29.1" y="23" width="6" height="14"></rect></g></g></svg>