<svg height='100px' width='100px'  fill="#4CE600" xmlns="http://www.w3.org/2000/svg" xmlns:xlink="http://www.w3.org/1999/xlink" version="1.1" x="0px" y="0px" viewBox="0 0 65 65" style="enable-background:new 0 0 65 65;" xml:space="preserve"><g><g><path d="M64.1,46c-4.6-10.5-4.3-11-5.8-11.6c-1.1-0.4-2.3-0.2-3.1,0.8c-0.6-0.4-1.2-0.6-1.9-0.5V6.9c0-0.6-0.4-1-1-1h-46    c-0.6,0-1,0.4-1,1v30.6H1.5c-0.6,0-1,0.4-1,1v3.5c0,2.3,1.9,4.2,4.2,4.2h20.5v4.8h-7.7c-0.6,0-1,0.4-1,1V56c0,0.6,0.4,1,1,1h23.5    c0.6,0,1-0.4,1-1v-3.9c0-0.6-0.4-1-1-1h-7.7v-4.8h9.5c0.1,0.3,2.7,6.4,3.1,7.3c0,0,0,0,0,0c0,0,0,0,0,0c0.5,1.2,3.5,4.1,4.5,4.9    c0.7,0.6,1.7,0.8,2.6,0.4L62,55c1.9-0.8,2-4,2.4-5.8C64.6,48.1,64.5,47,64.1,46z M51.2,7.9v5.8h-44V7.9H51.2z M7.2,15.7h44v20.2    c-0.9-0.4-2.1-0.2-2.9,0.4c-1.6-3.8-2.9-9-6.3-7.5c-1.4,0.6-2.1,2.2-1.5,3.6l2.2,5.1H7.2V15.7z M2.5,42.1v-2.5h41.1l1.4,3.3    c-0.3,0-0.5,0.1-0.8,0.2c-0.6,0.2-1.1,0.7-1.4,1.3H4.7C3.5,44.3,2.5,43.3,2.5,42.1z M39.9,55H18.4v-1.9h21.5V55z M31.2,51.1h-4    v-4.8h4V51.1z M62.4,48.8c-0.2,0.9-0.5,4-1.2,4.3l-9.2,3.9c-0.2,0.1-0.4,0-0.5-0.1c-1.7-1.6-3.7-3.7-4-4.3c-0.2-0.4-2.9-6.8-3-6.9    c-0.4-0.8,1-1.6,1.4-0.6l1.7,4c0.2,0.5,0.8,0.7,1.3,0.5c0.5-0.2,0.7-0.8,0.5-1.3c0-0.1-3.6-8.5-7.2-16.8c-0.4-0.9,1-1.6,1.4-0.6    c0,0.1,5.3,12.4,5.4,12.5c0.2,0.5,0.8,0.7,1.3,0.5c0.5-0.2,0.7-0.8,0.5-1.3c-0.7-1.6-1.3-3-1.8-4.2c-0.1-0.7,1.1-1.2,1.5-0.3    c0.9,1.6,1,4,2.5,3.5c1.9-0.7-1-3.5-0.4-4.5c1.9-1.6,1.3,2.6,3.2,1.6c0.5-0.2,0.7-0.8,0.5-1.3c-0.3-0.7,0.3-1.4,1-1.1    c0.3,0.1,0-0.6,4.7,10.5C62.5,47.5,62.6,48.1,62.4,48.8z"></path><path d="M11.3,11.5c0.4-0.4,0.4-1,0-1.4c-0.6-0.6-1.7-0.2-1.7,0.7c0,0.3,0.1,0.5,0.3,0.7C10.3,11.9,10.9,11.9,11.3,11.5z"></path><path d="M15.5,11.5c0.4-0.4,0.4-1,0-1.4c-0.6-0.6-1.7-0.2-1.7,0.7c0,0.3,0.1,0.5,0.3,0.7C14.5,11.9,15.1,11.9,15.5,11.5z"></path><path d="M19.7,11.5c0.4-0.4,0.4-1,0-1.4C19.1,9.5,18,9.9,18,10.8c0,0.3,0.1,0.5,0.3,0.7C18.7,11.9,19.3,11.9,19.7,11.5z"></path><path d="M42.4,26L39.6,22c-0.3-0.5-0.9-0.6-1.4-0.3c-0.5,0.3-0.6,0.9-0.3,1.4l2.4,3.5l-2.4,3.5c-0.3,0.5-0.2,1.1,0.3,1.4    c1.2,0.8,1.7-0.9,4.2-4.3C42.6,26.8,42.6,26.4,42.4,26z"></path><path d="M20.1,21.7c-0.5-0.3-1.1-0.2-1.4,0.3c-2.3,3.6-3.5,4.2-2.8,5.2l2.8,4.1c0.7,1.1,2.4,0,1.6-1.1L18,26.6l2.4-3.5    C20.7,22.6,20.6,22,20.1,21.7z"></path><path d="M24.3,27.9h-1.7c-1.3,0-1.3,2,0,2h1.7c0.6,0,1-0.4,1-1S24.9,27.9,24.3,27.9z"></path><path d="M28.7,27.9H27c-0.6,0-1,0.4-1,1s0.4,1,1,1h1.7c0.6,0,1-0.4,1-1S29.3,27.9,28.7,27.9z"></path><path d="M35.4,20.7c-0.5-0.2-1.1,0-1.3,0.5l-4.2,9.9c-0.2,0.5,0,1.1,0.5,1.3c0.5,0.2,1.1,0,1.3-0.5L36,22    C36.2,21.5,35.9,20.9,35.4,20.7z"></path></g></g></svg>