<svg height='100px' width='100px'  fill="#4CE600" xmlns="http://www.w3.org/2000/svg" xmlns:xlink="http://www.w3.org/1999/xlink" version="1.1" x="0px" y="0px" viewBox="0 0 64 64" style="enable-background:new 0 0 64 64;" xml:space="preserve"><path d="M32,42c5.514,0,10-4.486,10-10s-4.486-10-10-10s-10,4.486-10,10S26.486,42,32,42z M32,24c4.411,0,8,3.589,8,8s-3.589,8-8,8  s-8-3.589-8-8S27.589,24,32,24z"></path><path d="M22.808,17.151c-0.188-0.188-0.441-0.293-0.707-0.293s-0.52,0.105-0.707,0.293l-4.243,4.243  c-0.188,0.188-0.293,0.442-0.293,0.707s0.105,0.52,0.293,0.707l1.806,1.805c-0.609,1.072-1.081,2.206-1.408,3.387H15  c-0.553,0-1,0.448-1,1v6c0,0.552,0.447,1,1,1h2.548c0.327,1.183,0.798,2.318,1.406,3.389l-1.804,1.804  c-0.188,0.188-0.293,0.442-0.293,0.707s0.105,0.52,0.293,0.707l4.243,4.243c0.391,0.391,1.023,0.391,1.414,0l1.804-1.803  c1.071,0.609,2.206,1.08,3.389,1.406V49c0,0.552,0.447,1,1,1h6c0.553,0,1-0.448,1-1v-2.548c1.181-0.327,2.315-0.798,3.388-1.408  l1.805,1.805c0.188,0.188,0.441,0.293,0.707,0.293s0.52-0.105,0.707-0.293l4.243-4.243c0.188-0.188,0.293-0.442,0.293-0.707  s-0.105-0.52-0.293-0.707l-1.806-1.805c0.609-1.072,1.081-2.206,1.408-3.387H49c0.553,0,1-0.448,1-1v-6c0-0.552-0.447-1-1-1h-2.548  c-0.327-1.183-0.798-2.318-1.406-3.389l1.804-1.804c0.188-0.188,0.293-0.442,0.293-0.707s-0.105-0.52-0.293-0.707l-4.243-4.243  c-0.391-0.391-1.023-0.391-1.414,0l-1.804,1.803c-1.071-0.609-2.206-1.08-3.389-1.406V15c0-0.552-0.447-1-1-1h-6  c-0.553,0-1,0.448-1,1v2.548c-1.181,0.327-2.315,0.798-3.388,1.408L22.808,17.151z M29.214,19.307C29.673,19.207,30,18.8,30,18.33  V16h4v2.33c0,0.47,0.327,0.876,0.786,0.977c1.498,0.328,2.916,0.916,4.216,1.75c0.395,0.253,0.913,0.198,1.247-0.135l1.65-1.65  l2.829,2.829l-1.65,1.65c-0.332,0.332-0.389,0.851-0.135,1.247c0.833,1.299,1.422,2.718,1.75,4.217C44.794,29.673,45.2,30,45.67,30  H48v4h-2.33c-0.47,0-0.876,0.327-0.977,0.786c-0.328,1.495-0.917,2.913-1.752,4.214c-0.254,0.396-0.197,0.915,0.135,1.247  l1.652,1.652l-2.829,2.829l-1.651-1.652c-0.333-0.333-0.852-0.388-1.247-0.135c-1.302,0.835-2.72,1.425-4.215,1.751  C34.327,44.793,34,45.2,34,45.67V48h-4v-2.33c0-0.47-0.327-0.876-0.786-0.977c-1.498-0.328-2.916-0.916-4.216-1.75  c-0.396-0.254-0.914-0.199-1.247,0.135l-1.65,1.65l-2.829-2.829l1.65-1.65c0.332-0.332,0.389-0.851,0.135-1.247  c-0.833-1.299-1.422-2.718-1.75-4.217C19.206,34.327,18.8,34,18.33,34H16v-4h2.33c0.47,0,0.876-0.327,0.977-0.786  c0.328-1.495,0.917-2.913,1.752-4.214c0.254-0.396,0.197-0.915-0.135-1.247l-1.652-1.652l2.829-2.829l1.651,1.652  c0.334,0.334,0.853,0.388,1.247,0.135C26.301,20.223,27.719,19.634,29.214,19.307z"></path><path d="M32,8c1.654,0,3-1.346,3-3s-1.346-3-3-3s-3,1.346-3,3S30.346,8,32,8z M32,4c0.552,0,1,0.449,1,1s-0.448,1-1,1s-1-0.449-1-1  S31.448,4,32,4z"></path><path d="M32,56c-1.654,0-3,1.346-3,3s1.346,3,3,3s3-1.346,3-3S33.654,56,32,56z M32,60c-0.552,0-1-0.449-1-1s0.448-1,1-1  s1,0.449,1,1S32.552,60,32,60z"></path><path d="M59,29c-1.654,0-3,1.346-3,3s1.346,3,3,3s3-1.346,3-3S60.654,29,59,29z M59,33c-0.552,0-1-0.449-1-1s0.448-1,1-1  s1,0.449,1,1S59.552,33,59,33z"></path><path d="M5,35c1.654,0,3-1.346,3-3s-1.346-3-3-3s-3,1.346-3,3S3.346,35,5,35z M5,31c0.552,0,1,0.449,1,1s-0.448,1-1,1s-1-0.449-1-1  S4.448,31,5,31z"></path><path d="M19.374,9.284l0.677,2.032c0.109,0.329,0.381,0.577,0.719,0.657C20.847,11.991,20.924,12,21,12  c0.262,0,0.518-0.103,0.707-0.293l5-5c0.268-0.268,0.361-0.664,0.241-1.023c-0.119-0.359-0.432-0.62-0.807-0.673l-7-1  c-0.348-0.05-0.688,0.083-0.909,0.349c-0.223,0.266-0.291,0.628-0.181,0.957l0.681,2.043C11.331,11.358,6.026,18.563,4.48,26.816  l1.965,0.368C7.86,19.636,12.66,13.029,19.374,9.284z M23.879,6.707l-2.441,2.442l-0.978-2.93L23.879,6.707z"></path><path d="M59.522,37.185l-1.965-0.369c-1.418,7.554-6.219,14.162-12.932,17.901l-0.678-2.033c-0.109-0.329-0.381-0.577-0.719-0.657  c-0.337-0.081-0.691,0.021-0.937,0.266l-5,5c-0.268,0.268-0.361,0.664-0.241,1.023c0.119,0.359,0.432,0.62,0.807,0.673l7,1  C44.906,59.997,44.953,60,45,60c0.294,0,0.576-0.13,0.768-0.359c0.223-0.266,0.291-0.628,0.181-0.957l-0.681-2.043  C52.667,52.648,57.973,45.443,59.522,37.185z M40.121,57.293l2.441-2.442l0.978,2.93L40.121,57.293z"></path><path d="M54.717,19.373l-2.034,0.678c-0.329,0.11-0.577,0.382-0.657,0.719c-0.079,0.337,0.021,0.692,0.267,0.937l5,5  C57.483,26.898,57.739,27,58,27c0.105,0,0.213-0.017,0.316-0.051c0.359-0.12,0.62-0.432,0.674-0.807l1-7  c0.049-0.343-0.083-0.688-0.35-0.909c-0.267-0.222-0.629-0.288-0.957-0.181l-2.042,0.681C52.659,11.336,45.454,6.031,37.185,4.477  l-0.369,1.966C44.38,7.864,50.987,12.665,54.717,19.373z M57.293,23.879l-2.441-2.442l2.93-0.977L57.293,23.879z"></path><path d="M11.974,43.23c0.079-0.337-0.021-0.692-0.267-0.937l-5-5c-0.268-0.269-0.663-0.362-1.023-0.242  c-0.359,0.12-0.62,0.432-0.674,0.807l-1,7c-0.049,0.343,0.083,0.688,0.35,0.909C4.542,45.92,4.77,46,5,46  c0.106,0,0.213-0.017,0.316-0.051l2.042-0.681c3.988,7.407,11.194,12.712,19.458,14.255l0.367-1.966  c-7.56-1.411-14.167-6.212-17.901-12.931l2.034-0.678C11.646,43.839,11.894,43.567,11.974,43.23z M6.707,40.121l2.441,2.442  l-2.93,0.977L6.707,40.121z"></path></svg>