<svg height='100px' width='100px'  fill="#4CE600" xmlns="http://www.w3.org/2000/svg" xmlns:xlink="http://www.w3.org/1999/xlink" version="1.1" x="0px" y="0px" viewBox="0 0 64 64" style="enable-background:new 0 0 64 64;" xml:space="preserve"><path d="M50,19c-1.426,0-2.812,0.248-4.134,0.738C45.285,17.033,42.876,15,40,15c-0.003,0-0.006,0-0.009,0  C39.728,7.787,33.776,2,26.5,2C19.056,2,13,8.056,13,15.5c0,0.552,0.034,1.104,0.102,1.653C6.794,18.078,2,23.522,2,30  c0,6.134,4.276,11.277,10,12.637v3.949l-6.707,6.707C5.105,53.48,5,53.735,5,54v4h2v-3.586l6.707-6.707  C13.895,47.52,14,47.265,14,47v-4.051C14.331,42.975,14.662,43,15,43h3v5.586l-4.707,4.707C13.105,53.48,13,53.735,13,54v4h2v-3.586  l4.707-4.707C19.895,49.52,20,49.265,20,49v-6h5v7.586l-2.707,2.707C22.105,53.48,22,53.735,22,54v4h2v-3.586l2.707-2.707  C26.895,51.52,27,51.265,27,51v-8h4v15h2V43h4v8c0,0.265,0.105,0.52,0.293,0.707L40,54.414V58h2v-4c0-0.265-0.105-0.52-0.293-0.707  L39,50.586V43h5v6c0,0.265,0.105,0.52,0.293,0.707L49,54.414V58h2v-4c0-0.265-0.105-0.52-0.293-0.707L46,48.586V43h4v4  c0,0.265,0.105,0.52,0.293,0.707L57,54.414V58h2v-4c0-0.265-0.105-0.52-0.293-0.707L52,46.586v-3.767C57.666,41.863,62,36.934,62,31  C62,24.383,56.617,19,50,19z M50,41H15C8.935,41,4,36.065,4,30c0-5.793,4.533-10.61,10.32-10.964c0.289-0.018,0.557-0.16,0.732-0.39  c0.177-0.23,0.244-0.526,0.186-0.81C15.08,17.069,15,16.283,15,15.5C15,9.159,20.159,4,26.5,4S38,9.159,38,15.5  c0,0.112-0.008,0.223-0.016,0.333l-0.014,0.228c-0.015,0.309,0.114,0.608,0.351,0.809c0.235,0.2,0.55,0.281,0.854,0.217  c2.515-0.529,4.824,1.438,4.822,3.896c-0.004,0.03-0.018,0.156-0.02,0.186c-0.019,0.357,0.155,0.698,0.456,0.892  c0.301,0.194,0.681,0.213,1.001,0.049C46.867,21.374,48.402,21,50,21c5.514,0,10,4.486,10,10S55.514,41,50,41z"></path><path d="M29.334,7.486C28.425,7.164,27.472,7,26.5,7v2c0.743,0,1.472,0.125,2.166,0.371L29.334,7.486z"></path><path d="M23.666,7.486C20.277,8.688,18,11.908,18,15.5h2c0-2.747,1.742-5.21,4.334-6.129L23.666,7.486z"></path><rect x="57" y="60" width="2" height="2"></rect><rect x="49" y="60" width="2" height="2"></rect><rect x="40" y="60" width="2" height="2"></rect><rect x="5" y="60" width="2" height="2"></rect><rect x="13" y="60" width="2" height="2"></rect><rect x="22" y="60" width="2" height="2"></rect><rect x="31" y="60" width="2" height="2"></rect><rect x="27" y="24" width="2" height="2"></rect><rect x="27" y="28" width="2" height="2"></rect><rect x="27" y="32" width="2" height="2"></rect><rect x="31" y="24" width="2" height="2"></rect><rect x="31" y="28" width="2" height="2"></rect><rect x="31" y="32" width="2" height="2"></rect><rect x="35" y="24" width="2" height="2"></rect><rect x="35" y="28" width="2" height="2"></rect><rect x="35" y="32" width="2" height="2"></rect><path d="M39,36h-4v2h5c0.553,0,1-0.448,1-1v-6h-2V36z"></path><path d="M30,20h-6c-0.553,0-1,0.448-1,1v6h2v-5h5V20z"></path><rect x="29" y="36" width="4" height="2"></rect><rect x="32" y="20" width="3" height="2"></rect><path d="M40,20h-3v2h2v7h2v-8C41,20.448,40.553,20,40,20z"></path><path d="M25,29h-2v8c0,0.552,0.447,1,1,1h3v-2h-2V29z"></path></svg>