<svg height='100px' width='100px'  fill="#4CE600" xmlns="http://www.w3.org/2000/svg" xmlns:xlink="http://www.w3.org/1999/xlink" version="1.1" x="0px" y="0px" viewBox="0 0 100 100" enable-background="new 0 0 100 100" xml:space="preserve"><g><path d="M78.917,77.473c7.399,0,13.42-6.021,13.42-13.42c0-4.505-2.237-8.491-5.649-10.928c3.413-2.436,5.649-6.418,5.649-10.921   c0-4.503-2.236-8.485-5.649-10.92c3.412-2.436,5.648-6.419,5.648-10.921c0-7.401-6.021-13.422-13.422-13.422H41.581   c-7.401,0-13.422,6.021-13.422,13.422c0,4.501,2.235,8.483,5.645,10.919c-0.601,0.429-1.178,0.898-1.712,1.43   c-2.024,2.023-3.326,4.581-3.764,7.396c-0.212,1.364,0.721,2.643,2.085,2.855c1.36,0.213,2.643-0.721,2.855-2.085   c0.27-1.735,1.107-3.378,2.354-4.625c1.596-1.588,3.708-2.464,5.949-2.467c0.003,0,0.006,0,0.008,0h37.333   c0.004,0,0.007-0.001,0.011-0.001c4.639,0.005,8.412,3.78,8.412,8.419c0,4.643-3.777,8.42-8.42,8.42H56.289h-7.592   c-1.381,0-2.5,1.119-2.5,2.5s1.119,2.5,2.5,2.5h7.592h22.628c4.643,0,8.42,3.781,8.42,8.429c0,4.643-3.777,8.42-8.42,8.42h-18.65   c-0.007,0-0.013-0.002-0.019-0.002s-0.013,0.002-0.019,0.002H46.131c-1.381,0-2.5,1.119-2.5,2.5s1.119,2.5,2.5,2.5h11.617v10.586   H30.66c-1.381,0-2.5,1.119-2.5,2.5s1.119,2.5,2.5,2.5h59.176c1.381,0,2.5-1.119,2.5-2.5s-1.119-2.5-2.5-2.5H62.748V77.473H78.917z    M78.925,28.785c-0.003,0-0.005,0-0.008,0H41.584c-0.004,0-0.008,0.001-0.011,0.001c-4.64-0.005-8.414-3.781-8.414-8.422   c0-4.644,3.778-8.422,8.422-8.422h37.333c4.644,0,8.422,3.778,8.422,8.422C87.336,25.003,83.564,28.779,78.925,28.785z"></path><path d="M78.915,44.706c1.381,0,2.5-1.119,2.5-2.5s-1.119-2.5-2.5-2.5h-7.149c-1.381,0-2.5,1.119-2.5,2.5s1.119,2.5,2.5,2.5H78.915   z"></path><path d="M78.915,17.863h-7.149c-1.381,0-2.5,1.119-2.5,2.5s1.119,2.5,2.5,2.5h7.149c1.381,0,2.5-1.119,2.5-2.5   S80.296,17.863,78.915,17.863z"></path><path d="M78.915,66.55c1.381,0,2.5-1.119,2.5-2.5s-1.119-2.5-2.5-2.5h-7.149c-1.381,0-2.5,1.119-2.5,2.5s1.119,2.5,2.5,2.5H78.915z   "></path><path d="M31.403,56.298l-4.631,3.78l-4.632-3.78c-1.07-0.873-2.646-0.715-3.518,0.355c-0.873,1.07-0.713,2.645,0.356,3.518   l6.213,5.07c0.009,0.008,0.02,0.012,0.029,0.02c0.04,0.032,0.083,0.056,0.124,0.084c0.1,0.07,0.202,0.134,0.309,0.188   c0.051,0.026,0.102,0.048,0.155,0.07c0.11,0.046,0.222,0.083,0.336,0.113c0.047,0.012,0.092,0.026,0.14,0.036   c0.161,0.032,0.324,0.053,0.487,0.053c0,0,0.001,0,0.001,0s0.001,0,0.001,0c0.163,0,0.326-0.021,0.487-0.053   c0.047-0.009,0.093-0.024,0.14-0.036c0.114-0.03,0.225-0.067,0.335-0.113c0.053-0.022,0.104-0.044,0.155-0.07   c0.107-0.054,0.208-0.117,0.309-0.188c0.041-0.029,0.084-0.053,0.124-0.084c0.009-0.007,0.02-0.012,0.029-0.02l6.212-5.07   c1.069-0.873,1.229-2.447,0.355-3.518S32.473,55.425,31.403,56.298z"></path><path d="M45.88,63.305c0-10.536-8.572-19.108-19.108-19.108c-10.53,0-19.096,8.561-19.107,19.088c0,0.007-0.002,0.013-0.002,0.019   s0.002,0.013,0.002,0.019c0.011,10.521,8.567,19.077,19.087,19.088c0.007,0,0.013,0.002,0.019,0.002s0.013-0.002,0.019-0.002   C37.319,82.401,45.88,73.834,45.88,63.305z M29.206,77.188c-0.253-1.113-1.244-1.946-2.434-1.946s-2.181,0.833-2.434,1.946   c-5.829-1.02-10.43-5.621-11.449-11.45c1.113-0.253,1.946-1.244,1.946-2.434s-0.833-2.181-1.946-2.434   c1.02-5.829,5.62-10.429,11.449-11.449c0.252,1.114,1.244,1.947,2.434,1.947s2.182-0.833,2.434-1.947   c5.829,1.02,10.429,5.62,11.449,11.449c-1.114,0.252-1.947,1.244-1.947,2.434s0.833,2.182,1.947,2.434   C39.635,71.568,35.035,76.168,29.206,77.188z"></path></g></svg>