<svg height='100px' width='100px'  fill="#4CE600" xmlns="http://www.w3.org/2000/svg" data-name="Layer 1" viewBox="0 0 80 80" x="0px" y="0px"><title>web-hook-webhook-browser</title><path d="M34,19a2,2,0,0,0-2-2H13a6.007,6.007,0,0,0-6,6V57a6.007,6.007,0,0,0,6,6H67a6.007,6.007,0,0,0,6-6V23a6.007,6.007,0,0,0-6-6H48a2,2,0,0,0,0,4H67a2,2,0,0,1,2,2v4H46a2,2,0,0,0,0,4H69V57a2,2,0,0,1-2,2H13a2,2,0,0,1-2-2V31H34a2,2,0,0,0,0-4H11V23a2,2,0,0,1,2-2H32A2,2,0,0,0,34,19Z"></path><circle cx="14" cy="24" r="2"></circle><circle cx="19" cy="24" r="2"></circle><circle cx="24" cy="24" r="2"></circle><path d="M36.259,40.082A11.947,11.947,0,0,0,42,30.041V18.65a6,6,0,1,0-4,0V30.041A7.971,7.971,0,0,1,34.118,36.7,11,11,0,0,0,39.689,57c.105,0,.21,0,.314,0A11,11,0,0,0,51,46V43a2,2,0,0,0-3.414-1.414l-2,2A2,2,0,0,0,46.93,47,7,7,0,0,1,39.8,53,7.084,7.084,0,0,1,33,46.2,6.954,6.954,0,0,1,36.259,40.082ZM40,11a2,2,0,1,1-2,2A2,2,0,0,1,40,11Z"></path></svg>