<svg height='100px' width='100px'  fill="#4CE600" xmlns="http://www.w3.org/2000/svg" xmlns:xlink="http://www.w3.org/1999/xlink" version="1.1" x="0px" y="0px" viewBox="0 0 100 100" style="enable-background:new 0 0 100 100;" xml:space="preserve"><path d="M90.1,45.8c-1.8,0-3.4,1.2-3.9,2.9h-7.7h-7.8c-0.4-5.5-3-10.5-6.8-14l4.7-6.6h8.6c0.5,1.7,2,2.9,3.9,2.9c2.2,0,4-1.8,4-4  c0-2.2-1.8-4-4-4c-1.8,0-3.4,1.2-3.9,2.9h-9.8l-5.4,7.5c-3.4-2.4-7.6-3.9-12.1-3.9c-4.5,0-8.7,1.5-12.1,3.9l-5.4-7.5h-9.8  c-0.5-1.7-2-2.9-3.9-2.9c-2.2,0-4,1.8-4,4c0,2.2,1.8,4,4,4c1.8,0,3.4-1.2,3.9-2.9h8.6l4.7,6.6c-3.9,3.5-6.4,8.4-6.8,14h-7.8h-7.7  c-0.5-1.6-2-2.9-3.9-2.9c-2.2,0-4,1.8-4,4c0,2.2,1.8,4,4,4c1.8,0,3.4-1.2,3.9-2.9h7.7h7.7c0.2,5.7,2.8,10.8,6.7,14.5l-4.6,6.4h-8.6  c-0.5-1.7-2-2.9-3.9-2.9c-2.2,0-4,1.8-4,4c0,2.2,1.8,4,4,4c1.8,0,3.4-1.2,3.9-2.9h9.8l5.2-7.3c3.4,2.5,7.7,4,12.3,4  c4.6,0,8.8-1.5,12.3-4l5.2,7.3h9.8c0.5,1.7,2,2.9,3.9,2.9c2.2,0,4-1.8,4-4c0-2.2-1.8-4-4-4c-1.8,0-3.4,1.2-3.9,2.9h-8.6l-4.6-6.4  c3.9-3.6,6.5-8.8,6.7-14.5h7.7h7.7c0.5,1.6,2,2.9,3.9,2.9c2.2,0,4-1.8,4-4C94.1,47.6,92.3,45.8,90.1,45.8z"></path></svg>