<svg height='100px' width='100px'  fill="#4CE600" xmlns="http://www.w3.org/2000/svg" xmlns:xlink="http://www.w3.org/1999/xlink" version="1.1" x="0px" y="0px" viewBox="0 0 100 100" style="enable-background:new 0 0 100 100;" xml:space="preserve"><style type="text/css">
	.st0{fill:#4CE600;}
	.st1{fill:none;}
</style><g><g><path d="M3.4,53.5h28.8V21.7H3.4V53.5z M12.6,30.9H23V32H12.6V30.9z M12.6,37.1H23v1.1H12.6V37.1z M12.6,43.3H23v1.1H12.6V43.3z"></path><rect x="3.4" y="11.3" width="28.8" height="7.3"></rect><path d="M3.4,88.7h28.8V56.6H3.4V88.7z M17.8,67c3.4,0,6.2,2.8,6.2,6.2c0,3.4-2.8,6.2-6.2,6.2c-3.4,0-6.2-2.8-6.2-6.2    C11.6,69.8,14.3,67,17.8,67z"></path><path d="M35.4,53.5h28.8V21.7H35.4V53.5z M44.6,30.9H55V32H44.6V30.9z M44.6,37.1H55v1.1H44.6V37.1z M44.6,43.3H55v1.1H44.6V43.3z    "></path><rect x="35.4" y="11.3" width="28.8" height="7.3"></rect><path d="M35.4,88.7h28.8V56.6H35.4V88.7z M49.8,67c3.4,0,6.2,2.8,6.2,6.2c0,3.4-2.8,6.2-6.2,6.2c-3.4,0-6.2-2.8-6.2-6.2    C43.6,69.8,46.3,67,49.8,67z"></path><path d="M67.9,53.5h28.8V21.7H67.9V53.5z M77,30.9h10.4V32H77V30.9z M77,37.1h10.4v1.1H77V37.1z M77,43.3h10.4v1.1H77V43.3z"></path><rect x="67.9" y="11.3" width="28.8" height="7.3"></rect><path d="M67.9,88.7h28.8V56.6H67.9V88.7z M82.2,67c3.4,0,6.2,2.8,6.2,6.2c0,3.4-2.8,6.2-6.2,6.2c-3.4,0-6.2-2.8-6.2-6.2    C76,69.8,78.8,67,82.2,67z"></path></g></g></svg>