<svg height='100px' width='100px'  fill="#4CE600" xmlns="http://www.w3.org/2000/svg" viewBox="0 0 64 64" x="0px" y="0px"><title>cube, edge, geometry copy</title><g><path d="M9.5,33.5v4.59L21.26,26.32l-2.68-1.49-8.37,8.38A1,1,0,0,1,9.5,33.5Z"></path><path d="M9.5,26.5v4.59l7.26-7.27-2.68-1.49-3.87,3.88A1,1,0,0,1,9.5,26.5Z"></path><path d="M23.08,27.33,10.21,40.21a1,1,0,0,1-.71.29v4.59L25.76,28.82Z"></path><path d="M31,47.41,23.91,54.5,26.64,56a1.82,1.82,0,0,1,.15-.23L31,51.59Z"></path><path d="M22.29,53.29,31,44.59V40.41L19.41,52l2.73,1.52A1.82,1.82,0,0,1,22.29,53.29Z"></path><polygon points="28.41 57 31 58.44 31 54.41 28.41 57"></polygon><path d="M13.29,48.29l17-17-2.68-1.49L10.41,47l2.73,1.52A1.82,1.82,0,0,1,13.29,48.29Z"></path><polygon points="12.26 21.32 9.5 19.79 9.5 24.09 12.26 21.32"></polygon><path d="M17.79,50.79,31,37.59V33.41L14.91,49.5,17.64,51A1.82,1.82,0,0,1,17.79,50.79Z"></path><polygon points="54.5 17.5 32 30 9.5 17.5 32 5 54.5 17.5"></polygon><polygon points="54.5 46.5 33 58.44 33 31.73 54.5 19.79 54.5 46.5"></polygon></g></svg>