<svg height='100px' width='100px'  fill="#4CE600" xmlns:xlink="http://www.w3.org/1999/xlink" xmlns="http://www.w3.org/2000/svg" stroke-width="0.501" stroke-linejoin="bevel" fill-rule="evenodd" version="1.1" overflow="visible" viewBox="0 0 96 96" x="0px" y="0px"><g fill="none" stroke="black" font-family="Times New Roman" font-size="16" transform="scale(1 -1)"><g transform="translate(0 -96)"><g><path d="M 14.142,38.983 C 14.142,45.593 18.739,51.136 24.91,52.589 L 26.619,52.817 L 27.001,53.795 C 28.773,57.459 32.186,60.185 36.287,61.012 L 37.275,61.13 L 37.871,63.302 C 40.608,70.652 47.689,75.893 55.99,75.893 C 66.657,75.893 75.316,67.234 75.316,56.566 C 75.316,54.051 74.833,51.646 73.957,49.44 L 73.934,49.392 L 74.842,49.3 C 80.432,48.155 84.642,43.204 84.642,37.277 C 84.642,30.503 79.144,25.005 72.37,25.005 L 28.12,25.005 C 20.404,25.005 14.142,31.267 14.142,38.983 Z" stroke="none" stroke-linejoin="miter" fill="#4CE600" stroke-width="3.75" marker-start="none" marker-end="none" stroke-miterlimit="79.8403193612775"></path></g></g></g></svg>