<svg height='100px' width='100px'  fill="#4CE600" xmlns:x="http://ns.adobe.com/Extensibility/1.0/" xmlns:i="http://ns.adobe.com/AdobeIllustrator/10.0/" xmlns:graph="http://ns.adobe.com/Graphs/1.0/" xmlns="http://www.w3.org/2000/svg" xmlns:xlink="http://www.w3.org/1999/xlink" version="1.1" x="0px" y="0px" viewBox="0 0 100 100" style="enable-background:new 0 0 100 100;" xml:space="preserve"><g><g i:extraneous="self"><g><path d="M50,2.5C23.8,2.5,2.5,23.8,2.5,50S23.8,97.5,50,97.5c26.2,0,47.5-21.3,47.5-47.5S76.2,2.5,50,2.5z M50,88.8     c-21.4,0-38.8-17.4-38.8-38.8S28.6,11.2,50,11.2c21.4,0,38.8,17.4,38.8,38.8S71.4,88.8,50,88.8z"></path><circle cx="60.4" cy="33.2" r="5.7"></circle><path d="M65.5,47.8c-1.3-1.8-4-1.8-5.3,0l-2.2,3c-0.4,0.6-1.4,0.6-1.8,0l-9.4-13.1c-1.3-1.8-4-1.8-5.3,0L25.5,60.3     c-1.5,2.1,0,5.1,2.6,5.1h43.7c2.6,0,4.2-3,2.6-5.1L65.5,47.8z"></path></g></g></g></svg>