<svg height='100px' width='100px'  fill="#4CE600" xmlns="http://www.w3.org/2000/svg" xmlns:xlink="http://www.w3.org/1999/xlink" version="1.1" x="0px" y="0px" viewBox="0 0 100 100" style="enable-background:new 0 0 100 100;" xml:space="preserve"><g><path d="M85.2,79.8c8.2-8.2,8.2-21.5,0-29.7L72.5,37.5c-4-4-9.2-6.2-14.8-6.2s-10.9,2.2-14.8,6.2l-8.2,8.2l7.1,7.1l8.2-8.2   c2.1-2.1,4.8-3.2,7.8-3.2s5.7,1.1,7.8,3.2l12.7,12.7c4.3,4.3,4.3,11.3,0,15.6l-5.4,5.4c-4.3,4.3-11.3,4.3-15.6,0l-7-7l-7.1,7.1l7,7   c4.1,4.1,9.5,6.1,14.8,6.1s10.8-2,14.8-6.1L85.2,79.8z"></path><path d="M27.3,21.9c4.3-4.3,11.3-4.3,15.6,0l7,7l7.1-7.1l-7-7c-8.2-8.2-21.5-8.2-29.7,0l-5.4,5.4c-4,4-6.2,9.2-6.2,14.8   s2.2,10.9,6.2,14.9l12.7,12.7c4,4,9.2,6.2,14.8,6.2c5.6,0,10.9-2.2,14.8-6.2l8.2-8.2l-7.1-7.1l-8.2,8.2c-2.1,2.1-4.8,3.2-7.8,3.2   s-5.7-1.1-7.8-3.2L21.9,42.8c-2.1-2.1-3.2-4.8-3.2-7.8s1.1-5.7,3.2-7.8L27.3,21.9z"></path></g></svg>